<?xml version="1.0" encoding="UTF-8" standalone="no"?>
<!-- Created with Inkscape (http://www.inkscape.org/) -->

<svg
   xmlns:dc="http://purl.org/dc/elements/1.1/"
   xmlns:cc="http://creativecommons.org/ns#"
   xmlns:rdf="http://www.w3.org/1999/02/22-rdf-syntax-ns#"
   xmlns:svg="http://www.w3.org/2000/svg"
   xmlns="http://www.w3.org/2000/svg"
   xmlns:sodipodi="http://sodipodi.sourceforge.net/DTD/sodipodi-0.dtd"
   xmlns:inkscape="http://www.inkscape.org/namespaces/inkscape"
   width="560.62372"
   height="510.02271"
   id="svg4000"
   version="1.1"
   inkscape:version="0.48.4 r9939"
   sodipodi:docname="eichhorn.svg">
  <sodipodi:namedview
     id="base"
     pagecolor="#ffffff"
     bordercolor="#666666"
     borderopacity="1.0"
     inkscape:pageopacity="0.0"
     inkscape:pageshadow="2"
     inkscape:zoom="0.49497475"
     inkscape:cx="387.28987"
     inkscape:cy="340.74908"
     inkscape:document-units="px"
     inkscape:current-layer="layer1"
     showgrid="false"
     inkscape:window-width="1366"
     inkscape:window-height="716"
     inkscape:window-x="-4"
     inkscape:window-y="-4"
     inkscape:window-maximized="1"
     fit-margin-top="0"
     fit-margin-left="0"
     fit-margin-right="0"
     fit-margin-bottom="0" />
  <defs
     id="defs4002" />
  <metadata
     id="metadata4005">
    <rdf:RDF>
      <cc:Work
         rdf:about="">
        <dc:format>image/svg+xml</dc:format>
        <dc:type
           rdf:resource="http://purl.org/dc/dcmitype/StillImage" />
        <dc:title />
      </cc:Work>
    </rdf:RDF>
  </metadata>
  <g
     inkscape:label="Ebene 1"
     inkscape:groupmode="layer"
     id="layer1"
     transform="translate(-58.169224,-361.09375)">
    <path
       style="fill:none;stroke:#000000;stroke-width:1px;stroke-linecap:butt;stroke-linejoin:miter;stroke-opacity:1"
       d="m 423.875,361.59375 c -17.34096,-0.005 -24.70137,7.71668 -5.96875,23 -66.41989,6.35954 27.36031,57.91764 45.6875,75.40625 18.32719,17.48862 -10.21595,70.61377 -20.125,108.5 -9.90905,37.88623 -32.3433,61.21029 -49,95.96875 -38.22065,64.24039 -28.90719,-38.61784 -43.9375,-44.4375 -53.72587,-27.55178 5.54732,-31.77822 -99.5,-66.6875 C 121.87889,499.18765 14.71088,718.62515 76.78125,766.5 138.85162,814.37485 187.84569,661.7768 260.625,749.3125 c 72.77931,87.5357 92.66416,29.32418 120.1875,49.5 27.52334,20.17582 13.30549,43.98993 32.34375,56.5625 19.03826,12.57257 56.82321,15.83828 70.71875,15.15625 13.89554,-0.68203 -1.34112,-0.0492 18.15625,-5.0625 19.49737,-5.01329 -21.19722,-6.67567 -30.28125,-20.1875 -9.08403,-13.51183 11.93227,-38.1897 23.21875,-45.46875 11.28648,-7.27905 25.83377,12.10645 38.40625,10.125 12.57248,-1.98145 33.85454,-3.44935 34.34375,-16.1875 0.48921,-12.73815 -34.58093,-19.89407 -40.40625,-24.21875 -5.82532,-4.32468 20.61746,-21.34411 19.1875,-49.5 -1.42996,-28.15589 -15.2471,-44.62167 -11.125,-55.5625 29.25076,-55.55133 58.04753,33.82141 73.75,29.28125 34.16915,-31.91869 -37.84089,-65.39422 -42.4375,-85.84375 12.9712,-62.78706 28.96542,26.21623 41.4375,19.1875 28.35065,-34.81324 -19.32064,-54.59375 -31.3125,-74.75 -10.06583,-17.90709 -17.17011,-57.03147 -16.1875,-70.71875 0.98261,-13.68728 22.91722,-10.41575 29.84375,-46.21875 6.92653,-35.803 7.39906,-27.0221 2.125,-33.96875 -10.37856,-5.04821 -39.04622,-10.60173 -49.75,-10.96875 -32.04836,12.03157 -49.45503,2.21208 -67.9375,-14.78125 -18.00289,-9.40988 -37.54384,-14.08971 -51.03125,-14.09375 z M 537.6875,422 c 2.64039,-0.076 5.48752,1.11718 8.375,4.125 -6.55177,17.86325 -11.29342,10.79759 -19.625,6.40625 1.98823,-5.63386 6.20926,-10.38623 11.25,-10.53125 z"
       id="path4019"
       inkscape:connector-curvature="0" />
  </g>
</svg>
