<?xml version="1.0" encoding="UTF-8" standalone="no"?>
<!-- Created with Inkscape (http://www.inkscape.org/) -->

<svg
   xmlns:dc="http://purl.org/dc/elements/1.1/"
   xmlns:cc="http://creativecommons.org/ns#"
   xmlns:rdf="http://www.w3.org/1999/02/22-rdf-syntax-ns#"
   xmlns:svg="http://www.w3.org/2000/svg"
   xmlns="http://www.w3.org/2000/svg"
   xmlns:sodipodi="http://sodipodi.sourceforge.net/DTD/sodipodi-0.dtd"
   xmlns:inkscape="http://www.inkscape.org/namespaces/inkscape"
   width="4659.7207"
   height="3837.5076"
   id="svg3774"
   version="1.1"
   inkscape:version="0.48.1 "
   sodipodi:docname="finger-pan.svg"
   inkscape:export-filename="C:\Users\wollknaeul\Documents\HPI\_Semester 5\HCI\msproject2go\paper\bilder\finger-pan.png"
   inkscape:export-xdpi="90"
   inkscape:export-ydpi="90">
  <defs
     id="defs3776" />
  <sodipodi:namedview
     id="base"
     pagecolor="#ffffff"
     bordercolor="#666666"
     borderopacity="1.0"
     inkscape:pageopacity="0.0"
     inkscape:pageshadow="2"
     inkscape:zoom="0.0875"
     inkscape:cx="113.0497"
     inkscape:cy="3800.3163"
     inkscape:document-units="px"
     inkscape:current-layer="layer1"
     showgrid="false"
     fit-margin-top="0"
     fit-margin-left="0"
     fit-margin-right="0"
     fit-margin-bottom="0"
     inkscape:window-width="1920"
     inkscape:window-height="1028"
     inkscape:window-x="-4"
     inkscape:window-y="-4"
     inkscape:window-maximized="1" />
  <metadata
     id="metadata3779">
    <rdf:RDF>
      <cc:Work
         rdf:about="">
        <dc:format>image/svg+xml</dc:format>
        <dc:type
           rdf:resource="http://purl.org/dc/dcmitype/StillImage" />
        <dc:title></dc:title>
      </cc:Work>
    </rdf:RDF>
  </metadata>
  <g
     inkscape:label="Ebene 1"
     inkscape:groupmode="layer"
     id="layer1"
     transform="translate(1255.066,560.10533)">
    <g
       transform="matrix(2.8229075,0,0,2.8229075,-785.13796,-1101.7975)"
       id="g4374">
      <path
         inkscape:connector-curvature="0"
         id="path3793"
         d="M 1290.25,192.78125 C 1227.0946,191.49816 1117.1774,276.58886 1042.125,301.0625 900.63391,271.21587 778.37345,107.33238 711.15625,355.34375 355.87605,310.34427 512.7471,344.7771 287.28125,363.65625 61.815398,382.5354 131.70733,336.27125 -25.3125,409.1875 c -43.389787,2.30666 -171.18638,44.35009 -133.34375,63.21875 6.71904,139.12994 174.427717,120.76793 331.375,92.09375 92.92703,21.95432 252.03112,7.85383 253.25,34.875 C 344.83739,806.83554 339.70049,826.10218 388.5625,888.0625 231.84556,841.99225 -78.151024,695.11276 -74.28125,917 c 13.901299,51.91926 152.053438,116.5444 196.0625,137.1562 -1.32816,17.8877 74.97027,38.3936 101.78125,71.4688 26.81099,33.0752 44.61286,29.0549 134.15625,72.5625 184.80004,74.8841 259.67917,195.535 370.125,258.4687 64.84594,36.5359 25.25794,35.6254 220.71875,91.4063 195.4608,55.7809 590.986,-891.41642 528.0313,-1014.15625 C 1411.4061,411.84946 1369.8133,239.6274 1317.125,201 c -7.4731,-5.47878 -16.5405,-8.00879 -26.875,-8.21875 z m -395.65625,521.0625 c 9.23659,-0.21894 17.78335,1.56376 25.40625,7.8125 -10.68145,48.89244 12.54189,62.39156 22.15625,70 -28.40941,19.64046 -13.30821,25.53451 -22.09375,33.28125 -77.17523,68.05012 -146.59938,168.37304 -138.625,197.4375 -73.34057,22.7962 -77.19524,41.3981 -143.59375,16.4062 21.45864,-82.13469 -60.74817,-148.52611 -70.6875,-229.99995 30.77496,-16.47383 36.56645,-37.36239 50.6875,-92.125 30.54963,33.80881 29.19795,34.35549 40,41.40625 23.65919,54.19362 40.92951,128.04264 87.875,157.15625 46.94548,29.11361 133.57542,4.15631 90,-195.71875 21.09113,2.42574 41.24152,-5.23828 58.875,-5.65625 z"
         style="fill:#f4c8b2;fill-opacity:1;stroke:#000000;stroke-width:1.77122355;stroke-linecap:butt;stroke-linejoin:miter;stroke-miterlimit:4;stroke-opacity:1;stroke-dasharray:none" />
      <path
         sodipodi:nodetypes="ccc"
         inkscape:connector-curvature="0"
         id="path4307"
         d="m -24.547177,409.24357 c 12.715852,24.17588 -68.984245,49.84793 -133.785053,63.29718 -37.31616,-22.25837 104.387554,-62.92828 133.785053,-63.29718 z"
         style="fill:#d1abad;fill-opacity:1;stroke:#000000;stroke-width:0.88561177;stroke-linecap:butt;stroke-linejoin:miter;stroke-miterlimit:4;stroke-opacity:1;stroke-dasharray:none" />
      <path
         sodipodi:nodetypes="cccc"
         inkscape:connector-curvature="0"
         id="path4313"
         d="m 658.92857,758.79075 c 0,0 25.68055,91.5648 73.57142,147.85715 5.96954,6.79487 10.12288,-19.16195 10.55348,-39.28252 -14.21662,-16.3325 -23.86652,-88.02909 -84.1249,-108.57463 z"
         style="fill:#d1abad;fill-opacity:1;stroke:#000000;stroke-width:0.88561177;stroke-linecap:butt;stroke-linejoin:miter;stroke-miterlimit:4;stroke-opacity:1;stroke-dasharray:none" />
      <path
         sodipodi:nodetypes="cczc"
         inkscape:connector-curvature="0"
         id="path4315"
         d="m -74.246212,917.50682 c 27.952965,56.62665 85.355749,79.46634 196.474672,137.38078 80.30927,-168.35973 -139.108402,-226.58911 -162.129485,-222.23359 -23.021084,4.35551 -37.044339,36.30738 -34.345187,84.85281 z"
         style="fill:#d1abad;fill-opacity:1;stroke:#000000;stroke-width:0.88561177;stroke-linecap:butt;stroke-linejoin:miter;stroke-miterlimit:4;stroke-opacity:1;stroke-dasharray:none" />
      <path
         sodipodi:nodetypes="czc"
         inkscape:connector-curvature="0"
         id="path4317"
         d="m 678.56997,349.54855 c 1.14407,12.71093 319.85893,19.50321 509.36933,25.53173 189.5105,6.02852 174.7888,188.80323 273.7514,338.8808"
         style="fill:none;stroke:#000000;stroke-width:0.88561177;stroke-linecap:butt;stroke-linejoin:miter;stroke-miterlimit:4;stroke-opacity:1;stroke-dasharray:none" />
      <path
         sodipodi:nodetypes="ccc"
         inkscape:connector-curvature="0"
         id="path4319"
         d="m 1041.4673,300.80869 c 42.3607,18.49333 93.5176,45.31533 127.8777,73.7046 108.5771,-18.79019 212.1914,-17.34598 256.9904,51.55431"
         style="fill:none;stroke:#000000;stroke-width:0.88561177;stroke-linecap:butt;stroke-linejoin:miter;stroke-miterlimit:4;stroke-opacity:1;stroke-dasharray:none" />
      <path
         sodipodi:nodetypes="cc"
         inkscape:connector-curvature="0"
         id="path4321"
         d="m 574.01919,804.1172 c -5.0067,7.75203 -53.35434,0.76078 -124.24877,-27.27412"
         style="fill:none;stroke:#000000;stroke-width:0.88561177;stroke-linecap:butt;stroke-linejoin:miter;stroke-miterlimit:4;stroke-opacity:1;stroke-dasharray:none" />
      <path
         sodipodi:nodetypes="ccc"
         inkscape:connector-curvature="0"
         id="path4323"
         d="m 423.25392,594.258 c 212.49651,65.30644 309.83809,97.37541 365.17014,77.78175 -7.82053,6.39861 9.94886,54.6901 50.50763,47.47716"
         style="fill:none;stroke:#000000;stroke-width:0.88561177;stroke-linecap:butt;stroke-linejoin:miter;stroke-miterlimit:4;stroke-opacity:1;stroke-dasharray:none" />
      <path
         sodipodi:nodetypes="cc"
         inkscape:connector-curvature="0"
         id="path4325"
         d="M 386.88842,887.70732 C 535.69644,947.11946 553.07346,1021.1455 639.42656,1038.22"
         style="fill:none;stroke:#000000;stroke-width:0.88561177;stroke-linecap:butt;stroke-linejoin:miter;stroke-miterlimit:4;stroke-opacity:1;stroke-dasharray:none" />
      <path
         sodipodi:nodetypes="cc"
         inkscape:connector-curvature="0"
         id="path4327"
         d="m 173.57142,563.19902 c -5.63539,10.25468 -23.04456,-28.55465 -27.1936,-68.64322"
         style="fill:none;stroke:#000000;stroke-width:0.88561177;stroke-linecap:butt;stroke-linejoin:miter;stroke-miterlimit:4;stroke-opacity:1;stroke-dasharray:none" />
      <path
         sodipodi:nodetypes="cc"
         inkscape:connector-curvature="0"
         id="path4331"
         d="m 617.73087,717.44512 c 6.06317,-29.25867 2.73304,-55.66183 1.53997,-64.49863"
         style="fill:none;stroke:#000000;stroke-width:0.88561177;stroke-linecap:butt;stroke-linejoin:miter;stroke-miterlimit:4;stroke-opacity:1;stroke-dasharray:none" />
      <path
         sodipodi:nodetypes="cc"
         inkscape:connector-curvature="0"
         id="path4342"
         d="M 445.05885,600.99731 C 432.58276,562.15983 435.92774,526.2888 438.21429,490.21932"
         style="fill:none;stroke:#000000;stroke-width:0.88561177;stroke-linecap:butt;stroke-linejoin:miter;stroke-miterlimit:4;stroke-opacity:1;stroke-dasharray:none" />
      <path
         sodipodi:nodetypes="cc"
         inkscape:connector-curvature="0"
         id="path4344"
         d="m 354.28571,1026.6479 c 18.56671,30.876 57.81793,94.1116 -8.57143,168.5714"
         style="fill:none;stroke:#000000;stroke-width:0.88561177;stroke-linecap:butt;stroke-linejoin:miter;stroke-miterlimit:4;stroke-opacity:1;stroke-dasharray:none" />
    </g>
  </g>
</svg>
