<?xml version="1.0" encoding="UTF-8" standalone="no"?>
<!-- Created with Inkscape (http://www.inkscape.org/) -->

<svg
   xmlns:dc="http://purl.org/dc/elements/1.1/"
   xmlns:cc="http://creativecommons.org/ns#"
   xmlns:rdf="http://www.w3.org/1999/02/22-rdf-syntax-ns#"
   xmlns:svg="http://www.w3.org/2000/svg"
   xmlns="http://www.w3.org/2000/svg"
   xmlns:sodipodi="http://sodipodi.sourceforge.net/DTD/sodipodi-0.dtd"
   xmlns:inkscape="http://www.inkscape.org/namespaces/inkscape"
   width="35.871925mm"
   height="30.788874mm"
   viewBox="0 0 127.10525 109.09443"
   id="svg8265"
   version="1.1"
   inkscape:version="0.91 r13725"
   sodipodi:docname="sun.svg">
  <defs
     id="defs8267" />
  <sodipodi:namedview
     id="base"
     pagecolor="#ffffff"
     bordercolor="#666666"
     borderopacity="1.0"
     inkscape:pageopacity="0.0"
     inkscape:pageshadow="2"
     inkscape:zoom="4"
     inkscape:cx="27.265312"
     inkscape:cy="62.06127"
     inkscape:document-units="px"
     inkscape:current-layer="layer12"
     showgrid="false"
     inkscape:window-width="1920"
     inkscape:window-height="1005"
     inkscape:window-x="-9"
     inkscape:window-y="-9"
     inkscape:window-maximized="1"
     fit-margin-top="0"
     fit-margin-left="0"
     fit-margin-right="0"
     fit-margin-bottom="0" />
  <metadata
     id="metadata8270">
    <rdf:RDF>
      <cc:Work
         rdf:about="">
        <dc:format>image/svg+xml</dc:format>
        <dc:type
           rdf:resource="http://purl.org/dc/dcmitype/StillImage" />
        <dc:title></dc:title>
      </cc:Work>
    </rdf:RDF>
  </metadata>
  <g
     inkscape:label="beam"
     inkscape:groupmode="layer"
     id="layer1"
     style="display:inline;opacity:1"
     transform="translate(-16.746126,-457.70571)">
    <path
       style="display:inline;opacity:1;fill:none;fill-rule:evenodd;stroke:#8c0004;stroke-width:3;stroke-linecap:square;stroke-linejoin:round;stroke-miterlimit:4;stroke-dasharray:none;stroke-opacity:1"
       d="m 76.695538,520.97079 c -11.268667,9.13796 -21.784185,18.89808 -40.45516,21.92109"
       id="path8117"
       inkscape:connector-curvature="0"
       sodipodi:nodetypes="cc" />
    <path
       style="display:inline;opacity:1;fill:none;fill-rule:evenodd;stroke:#e7410d;stroke-width:3;stroke-linecap:square;stroke-linejoin:round;stroke-miterlimit:4;stroke-dasharray:none;stroke-opacity:1"
       d="m 80.541865,525.7796 c -3.404191,12.94345 -8.782819,23.59275 -9.684566,39.43774"
       id="path8119"
       inkscape:connector-curvature="0"
       sodipodi:nodetypes="cc" />
    <path
       style="display:inline;opacity:1;fill:none;fill-rule:evenodd;stroke:#f99004;stroke-width:3;stroke-linecap:square;stroke-linejoin:round;stroke-miterlimit:4;stroke-dasharray:none;stroke-opacity:1"
       d="m 91.771578,516.49624 c 10.372072,8.14464 0.318291,11.71633 26.391072,38.94688"
       id="path8121"
       inkscape:connector-curvature="0"
       sodipodi:nodetypes="cc" />
    <path
       style="display:inline;opacity:1;fill:none;fill-rule:evenodd;stroke:#b20d00;stroke-width:3;stroke-linecap:square;stroke-linejoin:round;stroke-miterlimit:4;stroke-dasharray:none;stroke-opacity:1"
       d="m 99.675008,509.64806 c 20.460452,10.54244 31.263292,2.01098 42.063612,11.02474"
       id="path8123"
       inkscape:connector-curvature="0"
       sodipodi:nodetypes="cc" />
    <path
       style="display:inline;opacity:1;fill:none;fill-rule:evenodd;stroke:#de560a;stroke-width:3;stroke-linecap:square;stroke-linejoin:round;stroke-miterlimit:4;stroke-dasharray:none;stroke-opacity:1"
       d="m 104.7494,497.90973 c 12.04562,-11.99253 29.59058,-8.56945 34.3841,-16.55231"
       id="path8125"
       inkscape:connector-curvature="0"
       sodipodi:nodetypes="cc" />
    <path
       style="display:inline;opacity:1;fill:none;fill-rule:evenodd;stroke:#b20d00;stroke-width:3;stroke-linecap:square;stroke-linejoin:round;stroke-miterlimit:4;stroke-dasharray:none;stroke-opacity:1"
       d="m 70.162648,509.30884 c -5.710192,-0.93439 -25.222198,4.81208 -51.901071,5.08834"
       id="path8127"
       inkscape:connector-curvature="0"
       sodipodi:nodetypes="cc" />
    <path
       style="display:inline;opacity:1;fill:none;fill-rule:evenodd;stroke:#b20d00;stroke-width:3;stroke-linecap:square;stroke-linejoin:round;stroke-miterlimit:4;stroke-dasharray:none;stroke-opacity:1"
       d="M 69.144978,501.3371 C 56.004745,501.13368 51.909811,488.74219 43.024838,487.7682"
       id="path8129"
       inkscape:connector-curvature="0"
       sodipodi:nodetypes="cc" />
    <path
       style="display:inline;opacity:1;fill:none;fill-rule:evenodd;stroke:#e7410d;stroke-width:3;stroke-linecap:square;stroke-linejoin:round;stroke-miterlimit:4;stroke-dasharray:none;stroke-opacity:1"
       d="m 74.629958,486.80309 c -7.738091,-1.94228 -10.584125,-14.69911 -20.86219,-25.4417"
       id="path8131"
       inkscape:connector-curvature="0"
       sodipodi:nodetypes="cc" />
    <path
       style="display:inline;opacity:1;fill:none;fill-rule:evenodd;stroke:#e7410d;stroke-width:3;stroke-linecap:square;stroke-linejoin:round;stroke-miterlimit:4;stroke-dasharray:none;stroke-opacity:1"
       d="m 92.712558,483.0712 c -0.302727,-8.86702 4.848014,-6.81523 11.703182,-23.40636"
       id="path8133"
       inkscape:connector-curvature="0"
       sodipodi:nodetypes="cc" />
  </g>
  <g
     inkscape:groupmode="layer"
     id="layer12"
     inkscape:label="filling"
     style="display:inline"
     transform="translate(-16.746126,-457.70571)">
    <path
       style="color:#000000;display:inline;overflow:visible;visibility:visible;opacity:1;fill:#fbcc4e;fill-opacity:1;fill-rule:nonzero;stroke:#000000;stroke-width:0.02678571;stroke-linecap:round;stroke-linejoin:round;stroke-miterlimit:4;stroke-dasharray:none;stroke-dashoffset:0;stroke-opacity:1;marker:none;enable-background:accumulate"
       d="m 72.314636,504.22337 c -0.160548,-0.0502 -0.429486,-0.24361 -0.59764,-0.42973 -1.121881,-1.24179 -0.522501,-4.7297 0.943008,-5.48755 0.317464,-0.16416 0.538862,-0.16269 1.2001,0.008 2.280641,0.58873 3.460346,2.24968 2.696022,3.79583 -0.320992,0.64933 -0.902199,1.30846 -1.302548,1.47717 -0.320957,0.13526 -1.989162,0.60813 -2.423822,0.68706 -0.122768,0.0223 -0.354572,-5.6e-4 -0.51512,-0.0508 z"
       id="path8871"
       inkscape:connector-curvature="0" />
    <path
       style="color:#000000;display:inline;overflow:visible;visibility:visible;opacity:1;fill:#ebbf25;fill-opacity:1;fill-rule:nonzero;stroke:#000000;stroke-width:0.02678571;stroke-linecap:round;stroke-linejoin:round;stroke-miterlimit:4;stroke-dasharray:none;stroke-dashoffset:0;stroke-opacity:1;marker:none;enable-background:accumulate"
       d="m 95.731272,504.36918 c -0.294495,-0.11002 -0.825759,-0.28632 -1.180588,-0.39178 -0.567496,-0.16867 -0.701822,-0.25307 -1.116071,-0.70129 -0.639538,-0.69199 -0.996618,-1.42922 -0.99955,-2.06367 -0.0056,-1.218 1.084923,-2.29435 2.757202,-2.72128 1.128692,-0.28816 1.68728,-0.12175 2.174956,0.64792 0.793299,1.25203 0.933444,3.26767 0.307198,4.41829 -0.262967,0.48316 -0.532465,0.7103 -1.057265,0.89111 -0.317837,0.10951 -0.400249,0.10213 -0.885882,-0.0793 z"
       id="path8873"
       inkscape:connector-curvature="0" />
    <path
       style="color:#000000;display:inline;overflow:visible;visibility:visible;opacity:1;fill:#f4e023;fill-opacity:1;fill-rule:nonzero;stroke:#000000;stroke-width:0.02678571;stroke-linecap:round;stroke-linejoin:round;stroke-miterlimit:4;stroke-dasharray:none;stroke-dashoffset:0;stroke-opacity:1;marker:none;enable-background:accumulate"
       d="m 81.401184,531.12085 c -4.707522,-0.3595 -8.265812,-1.33109 -10.629301,-2.90234 -2.203743,-1.46504 -5.894725,-6.57921 -7.809649,-10.82093 -1.902809,-4.21488 -2.81105,-8.00741 -2.81105,-11.73805 0,-2.21153 0.244082,-3.75575 0.913028,-5.7764 2.15082,-6.49687 9.51372,-13.57014 17.575207,-16.88388 5.12597,-2.10707 9.759075,-2.56081 14.074689,-1.37838 8.561142,2.34564 16.780792,10.83733 19.265432,19.90304 0.87032,3.17557 0.96036,5.93154 0.34966,10.70285 -1.19585,9.34295 -4.63149,14.77792 -10.6438,16.83782 -2.117597,0.72552 -6.903633,1.54153 -11.311001,1.92851 -1.876841,0.1648 -7.449354,0.24414 -8.973215,0.12776 z m 1.770717,-7.46319 c 2.292954,-0.78155 4.859671,-1.94182 10.586696,-4.78567 2.35238,-1.16811 4.346345,-2.12383 4.431032,-2.12383 0.192646,0 0.364724,-0.19765 0.282341,-0.3243 -0.03582,-0.0551 -0.587974,-0.1185 -1.311857,-0.1507 -2.463461,-0.10959 -4.791124,-0.4912 -10.714286,-1.7566 -8.401764,-1.79491 -11.619489,-2.05258 -16.049107,-1.28519 -0.210338,0.0364 -0.334821,0.10724 -0.334821,0.19044 0,0.25455 1.874909,2.96436 3.104586,4.48706 2.560757,3.17096 5.197317,5.29398 7.252556,5.83994 0.822991,0.21862 1.953881,0.18118 2.75286,-0.0912 z m 18.224259,-14.54084 c 0.38268,-0.19789 1.11904,-1.07089 1.46305,-1.73453 0.63939,-1.23347 0.89938,-2.3988 0.89843,-4.02699 -10e-4,-1.76833 -0.37082,-3.36248 -1.12838,-4.86442 -1.15849,-2.29683 -3.509335,-4.42873 -5.424636,-4.91941 -0.694549,-0.17794 -2.068634,-0.13513 -2.901654,0.0904 -0.765686,0.2073 -2.393427,1.03278 -3.125,1.5848 -1.7508,1.32108 -2.987095,3.00254 -3.400231,4.62457 -0.360046,1.41358 0.225903,2.67768 1.514516,3.26733 0.556295,0.25455 1.220881,0.41809 2.498853,0.61489 3.029231,0.46648 5.134954,1.64811 7.244005,4.06496 1.155207,1.32381 1.715797,1.63209 2.361047,1.29841 z m -28.834261,-4.34614 c 0.122767,0.003 0.565468,-0.0918 0.983779,-0.20986 0.41831,-0.11806 0.940631,-0.24118 1.160714,-0.27361 0.220083,-0.0324 0.540774,-0.14787 0.712649,-0.25654 0.171875,-0.10866 0.751017,-0.40621 1.28698,-0.66121 1.228328,-0.58441 2.221438,-1.24588 3.126779,-2.08264 2.654079,-2.45302 3.334367,-4.96539 1.879601,-6.94155 -1.429849,-1.94231 -5.636314,-3.33196 -7.900502,-2.61 -1.698533,0.54159 -2.989579,1.98751 -5.216488,5.84224 -1.15717,2.00304 -1.631767,3.00882 -1.799462,3.8135 -0.233599,1.12093 -0.02179,1.89972 0.690953,2.54054 0.805754,0.72444 1.754577,0.9573 3.601782,0.88397 0.6875,-0.0273 1.350447,-0.0475 1.473215,-0.0448 z"
       id="path8875"
       inkscape:connector-curvature="0" />
    <path
       style="color:#000000;display:inline;overflow:visible;visibility:visible;opacity:1;fill:#fd6a21;fill-opacity:1;fill-rule:nonzero;stroke:#000000;stroke-width:0.02678571;stroke-linecap:round;stroke-linejoin:round;stroke-miterlimit:4;stroke-dasharray:none;stroke-dashoffset:0;stroke-opacity:1;marker:none;enable-background:accumulate"
       d="m 87.923295,520.77879 c -0.35391,-0.73131 -0.977022,-1.59343 -1.491555,-2.06369 -0.8648,-0.79038 -1.625431,-1.07128 -2.905544,-1.07303 -0.704012,-9.6e-4 -0.812738,-0.0249 -1.160714,-0.25578 -1.029362,-0.68294 -2.010076,-0.60818 -2.932429,0.22352 -0.209642,0.18904 -0.836981,0.91353 -1.394088,1.60999 -0.557106,0.69646 -1.136749,1.35447 -1.288095,1.46224 l -0.275174,0.19594 -0.402614,-0.39081 c -1.333353,-1.29424 -2.20298,-2.28084 -3.388656,-3.84447 -1.021598,-1.34725 -2.096081,-2.95711 -2.020964,-3.02794 0.273293,-0.25769 3.641666,-0.46459 5.63572,-0.34616 2.795028,0.16599 4.696325,0.47553 10.401523,1.69343 5.057735,1.07968 7.295002,1.45986 9.873431,1.67781 l 0.753308,0.0637 -3.610451,1.77793 c -1.985748,0.97786 -4.056542,1.98807 -4.601763,2.24492 l -0.991313,0.46698 -0.200622,-0.41455 z"
       id="path8877"
       inkscape:connector-curvature="0" />
    <path
       style="color:#000000;display:inline;overflow:visible;visibility:visible;opacity:1;fill:#fe8510;fill-opacity:1;fill-rule:nonzero;stroke:#000000;stroke-width:0.02678571;stroke-linecap:round;stroke-linejoin:round;stroke-miterlimit:4;stroke-dasharray:none;stroke-dashoffset:0;stroke-opacity:1;marker:none;enable-background:accumulate"
       d="m 69.61106,504.42129 c -1.123655,-0.16544 -2.018096,-0.69296 -2.326589,-1.37218 -0.420138,-0.92502 -0.115606,-2.16273 1.03495,-4.20635 2.645342,-4.69865 3.922437,-6.21052 5.704613,-6.75328 1.44935,-0.44141 4.113655,0.10652 5.95399,1.22446 0.742988,0.45134 1.460317,1.2082 1.801015,1.90026 0.262936,0.5341 0.291166,0.66793 0.285497,1.35351 -0.0076,0.91744 -0.260837,1.64954 -0.907495,2.62338 -0.514126,0.77426 -1.8225,2.10744 -2.613,2.66255 -0.604459,0.42446 -1.838808,1.14452 -1.961978,1.14452 -0.03905,0 0.07478,-0.27121 0.252953,-0.60268 0.283841,-0.52807 0.324014,-0.68005 0.32452,-1.22768 7.14e-4,-0.80113 -0.299003,-1.44478 -0.967054,-2.07659 -0.562891,-0.53236 -1.142967,-0.84306 -2.036053,-1.09055 -1.163524,-0.32243 -1.648887,-0.2205 -2.294243,0.4818 -0.688654,0.74941 -1.107342,1.99239 -1.115061,3.31034 -0.0062,1.05471 0.1903,1.71868 0.659074,2.22724 l 0.353177,0.38315 -0.335346,0.0554 c -0.429738,0.071 -1.182211,0.0555 -1.81297,-0.0373 z"
       id="path8879"
       inkscape:connector-curvature="0" />
    <path
       style="color:#000000;display:inline;overflow:visible;visibility:visible;opacity:1;fill:#f4890a;fill-opacity:1;fill-rule:nonzero;stroke:#000000;stroke-width:0.02678571;stroke-linecap:round;stroke-linejoin:round;stroke-miterlimit:4;stroke-dasharray:none;stroke-dashoffset:0;stroke-opacity:1;marker:none;enable-background:accumulate"
       d="m 100.64226,508.80465 c -0.22887,-0.0962 -0.58634,-0.44446 -1.724584,-1.68027 -0.506554,-0.54998 -1.28429,-1.27125 -1.728301,-1.60281 l -0.807292,-0.60285 0.433658,-0.13374 c 0.579459,-0.17871 1.110908,-0.71692 1.375833,-1.39336 0.296357,-0.75668 0.306787,-2.39099 0.02103,-3.29525 -0.26511,-0.83892 -0.70399,-1.54367 -1.160567,-1.86363 -0.315611,-0.22118 -0.459731,-0.26266 -0.898194,-0.25853 -1.106945,0.0104 -2.47138,0.53536 -3.17893,1.22302 -1.15178,1.1194 -1.215321,2.58528 -0.171349,3.95296 0.161726,0.21187 0.294048,0.39973 0.294048,0.41746 0,0.0177 -0.271205,-0.02 -0.602679,-0.0838 -0.331473,-0.0638 -1.003082,-0.18013 -1.492465,-0.25849 -2.206212,-0.35322 -3.157878,-1.35183 -2.893524,-3.03626 0.180391,-1.14942 0.995736,-2.4788 2.277136,-3.71275 1.628062,-1.56777 3.494733,-2.51493 5.211532,-2.64435 1.208812,-0.0911 2.255064,0.24171 3.47263,1.10471 2.162028,1.53243 3.661618,3.91157 4.168938,6.61414 0.20468,1.09035 0.13591,3.28563 -0.13055,4.16731 -0.39639,1.31162 -1.18615,2.60934 -1.82505,2.99891 -0.31145,0.1899 -0.37665,0.19881 -0.64132,0.0876 z"
       id="path8881"
       inkscape:connector-curvature="0" />
    <path
       style="color:#000000;display:inline;overflow:visible;visibility:visible;opacity:1;fill:#c72122;fill-opacity:1;fill-rule:nonzero;stroke:#000000;stroke-width:0.02678571;stroke-linecap:round;stroke-linejoin:round;stroke-miterlimit:4;stroke-dasharray:none;stroke-dashoffset:0;stroke-opacity:1;marker:none;enable-background:accumulate"
       d="m 80.631438,523.40772 c -0.917606,-0.22267 -2.420713,-1.05597 -3.440203,-1.90719 l -0.415306,-0.34676 0.31104,-0.24819 c 0.171072,-0.1365 0.765465,-0.81993 1.320873,-1.51874 0.555408,-0.6988 1.164329,-1.3979 1.353157,-1.55355 0.777934,-0.64124 1.546084,-0.69164 2.345198,-0.15387 0.420214,0.28278 0.483371,0.29734 1.451977,0.3347 0.861907,0.0332 1.091473,0.0752 1.542129,0.28183 0.690522,0.31661 1.229726,0.7659 1.723855,1.4364 0.39391,0.53452 0.958906,1.55655 0.895523,1.61993 -0.164643,0.16464 -3.90141,1.70499 -4.837819,1.99422 -0.684543,0.21144 -1.535975,0.2346 -2.250424,0.0612 z"
       id="path8883"
       inkscape:connector-curvature="0" />
  </g>
  <g
     inkscape:groupmode="layer"
     id="layer11"
     inkscape:label="face"
     style="display:inline"
     transform="translate(-16.746126,-457.70571)">
    <path
       style="display:inline;opacity:1;fill:none;fill-opacity:1;fill-rule:evenodd;stroke:#a80200;stroke-width:3;stroke-linecap:round;stroke-linejoin:round;stroke-miterlimit:4;stroke-dasharray:none;stroke-opacity:1"
       d="m 100.08253,529.72592 c 8.86327,-2.0174 12.08846,-9.86431 12.83287,-21.64796 0.74441,-11.78365 -10.43338,-25.04238 -21.887832,-27.04496 -11.45445,-2.00258 -26.03773,8.1267 -29.92336,18.10993 -3.88563,9.98323 2.67547,22.40182 8.21543,28.12436 5.53996,5.72254 21.89962,4.47603 30.762892,2.45863 z"
       id="path8105"
       inkscape:connector-curvature="0"
       sodipodi:nodetypes="zzzzzz" />
    <path
       style="display:inline;opacity:1;fill:none;fill-rule:evenodd;stroke:#a80200;stroke-width:2;stroke-linecap:round;stroke-linejoin:round;stroke-miterlimit:4;stroke-dasharray:none;stroke-opacity:1"
       d="m 70.247448,513.46431 c 9.01911,-1.90895 18.937,2.95675 28.07067,3.05301 0,-0.36582 -9.95381,5.233 -15.43462,7.03887 -5.48081,1.80587 -12.63605,-10.09188 -12.63605,-10.09188 z"
       id="path8107"
       inkscape:connector-curvature="0"
       sodipodi:nodetypes="cczc" />
    <path
       style="display:inline;opacity:1;fill:none;fill-rule:evenodd;stroke:#a80200;stroke-width:2;stroke-linecap:round;stroke-linejoin:round;stroke-miterlimit:4;stroke-dasharray:none;stroke-opacity:1"
       d="m 77.879958,492.17809 c -4.77688,-1.46602 -6.31843,0.3452 -10.17668,7.3781 -3.85825,7.0329 6.98388,6.00986 11.70319,1.86572 4.7193,-4.14413 3.25037,-7.7778 -1.52651,-9.24382 z"
       id="path8109"
       inkscape:connector-curvature="0"
       sodipodi:nodetypes="zzzz" />
    <path
       style="display:inline;opacity:1;fill:none;fill-rule:evenodd;stroke:#a80200;stroke-width:2;stroke-linecap:round;stroke-linejoin:round;stroke-miterlimit:4;stroke-dasharray:none;stroke-opacity:1"
       d="m 98.318118,494.21343 c -5.79517,-3.31943 -15.66127,8.26513 -7.12367,9.24382 8.5376,0.97869 8.3518,7.73329 10.770322,4.91873 2.87465,-3.34538 2.14852,-10.84312 -3.646652,-14.16255 z"
       id="path8111"
       inkscape:connector-curvature="0"
       sodipodi:nodetypes="zzsz" />
    <path
       style="display:inline;opacity:1;fill:none;fill-rule:evenodd;stroke:#a80200;stroke-width:2;stroke-linecap:round;stroke-linejoin:round;stroke-miterlimit:4;stroke-dasharray:none;stroke-opacity:1"
       d="m 72.497878,504.47996 c -2.8288,-0.56576 -1.45243,-6.86283 0.83953,-6.4764 2.29196,0.38643 3.44636,1.54589 3.65797,2.93837 0.21161,1.39248 -1.61911,3.11827 -2.09884,3.11827 -0.47973,0 -2.1588,0.5397 -2.1588,0.5397"
       id="path8113"
       inkscape:connector-curvature="0"
       sodipodi:nodetypes="czzzc" />
    <path
       sodipodi:nodetypes="czzzc"
       inkscape:connector-curvature="0"
       id="path8115"
       d="m 96.499398,504.65973 c 2.86002,-0.37746 1.90309,-6.75176 -0.4094,-6.51775 -2.3125,0.23402 -3.54105,1.3146 -3.84428,2.69004 -0.30323,1.37544 1.40935,3.21852 1.88803,3.25024 0.47868,0.0317 2.11839,0.68128 2.11839,0.68128"
       style="display:inline;opacity:1;fill:none;fill-rule:evenodd;stroke:#a80200;stroke-width:2;stroke-linecap:round;stroke-linejoin:round;stroke-miterlimit:4;stroke-dasharray:none;stroke-opacity:1" />
    <path
       style="display:inline;opacity:1;fill:none;fill-rule:evenodd;stroke:#a80200;stroke-width:2;stroke-linecap:round;stroke-linejoin:round;stroke-miterlimit:4;stroke-dasharray:none;stroke-opacity:1"
       d="m 88.029238,521.39056 c -1.04714,-2.13101 -2.31373,-3.97667 -5.33703,-3.53803 -2.90602,-2.45953 -4.08569,1.73977 -5.99667,3.11826"
       id="path8135"
       inkscape:connector-curvature="0"
       sodipodi:nodetypes="ccc" />
  </g>
</svg>
