<?xml version="1.0" encoding="UTF-8" standalone="no"?>
<!-- Created with Inkscape (http://www.inkscape.org/) -->

<svg
   xmlns:dc="http://purl.org/dc/elements/1.1/"
   xmlns:cc="http://creativecommons.org/ns#"
   xmlns:rdf="http://www.w3.org/1999/02/22-rdf-syntax-ns#"
   xmlns:svg="http://www.w3.org/2000/svg"
   xmlns="http://www.w3.org/2000/svg"
   xmlns:sodipodi="http://sodipodi.sourceforge.net/DTD/sodipodi-0.dtd"
   xmlns:inkscape="http://www.inkscape.org/namespaces/inkscape"
   width="1411.5742"
   height="683.90143"
   id="svg3821"
   version="1.1"
   inkscape:version="0.48.1 "
   sodipodi:docname="finger2.svg"
   inkscape:export-filename="C:\Users\wollknaeul\Documents\HPI\_Semester 5\HCI\msproject2go\paper\bilder\finger2.png"
   inkscape:export-xdpi="90"
   inkscape:export-ydpi="90">
  <defs
     id="defs3823" />
  <sodipodi:namedview
     id="base"
     pagecolor="#ffffff"
     bordercolor="#666666"
     borderopacity="1.0"
     inkscape:pageopacity="0.0"
     inkscape:pageshadow="2"
     inkscape:zoom="0.35"
     inkscape:cx="340.83825"
     inkscape:cy="86.921719"
     inkscape:document-units="px"
     inkscape:current-layer="layer1"
     showgrid="false"
     fit-margin-top="0"
     fit-margin-left="0"
     fit-margin-right="0"
     fit-margin-bottom="0"
     inkscape:window-width="1920"
     inkscape:window-height="1028"
     inkscape:window-x="-4"
     inkscape:window-y="-4"
     inkscape:window-maximized="1" />
  <metadata
     id="metadata3826">
    <rdf:RDF>
      <cc:Work
         rdf:about="">
        <dc:format>image/svg+xml</dc:format>
        <dc:type
           rdf:resource="http://purl.org/dc/dcmitype/StillImage" />
        <dc:title></dc:title>
      </cc:Work>
    </rdf:RDF>
  </metadata>
  <g
     inkscape:label="Ebene 1"
     inkscape:groupmode="layer"
     id="layer1"
     transform="translate(753.92857,-136.67504)">
    <g
       id="g4534">
      <path
         sodipodi:nodetypes="czcsscssscscacc"
         inkscape:connector-curvature="0"
         id="path3889"
         d="M -751.42857,426.6479 C -659.57465,361.94403 -561.95962,298.03194 -520,239.50504 c 41.95961,-58.52689 116.12008,-7.24187 182.85714,8.57142 126.19662,-78.45512 52.31904,-58.40471 218.56503,-59.1443 106.809563,-0.47517 159.164122,-17.23637 207.149259,-5.14141 49.952321,12.59081 87.142851,67.14286 87.142851,67.14286 71.60421,-27.36028 109.36655,-19.66131 181.42858,-67.14286 37.35543,-24.61343 77.61661,-4.7036 135.71428,-31.78571 54.57171,-25.43848 114.3147,-12.00806 134.64286,31.07143 38.19779,80.94884 -13.04579,115.36521 -53.21429,129.28571 0,0 45.34819,-22.80221 77.5,48.21429 7.22519,15.95891 9.67034,73.00592 -67.14286,119.28571 -75.38927,62.38661 -142.46252,96.96535 -212.49999,147.14286 -86.96295,62.30357 -167.55505,125.39865 -257.85715,191.07143 z"
         style="fill:#f4c8b2;fill-opacity:1;stroke:#000000;stroke-width:6.25;stroke-linecap:butt;stroke-linejoin:miter;stroke-miterlimit:4;stroke-opacity:1;stroke-dasharray:none" />
      <path
         sodipodi:nodetypes="cac"
         inkscape:connector-curvature="0"
         id="path4399"
         d="M -551.54329,508.90011 C -351.33692,496.86372 -193.32523,347.52239 -5.9383633,290.33951 54.009842,272.04575 113.50069,272.20843 177.9094,250.8928"
         style="fill:none;stroke:#000000;stroke-width:3.125;stroke-linecap:butt;stroke-linejoin:miter;stroke-miterlimit:4;stroke-opacity:1;stroke-dasharray:none" />
      <path
         sodipodi:nodetypes="cssc"
         inkscape:connector-curvature="0"
         id="path4401"
         d="M 576.26665,311.73653 C 470.02455,336.97712 406.21322,358.03836 318.42033,410.08027 263.46958,442.654 155.60388,465.31438 85.28685,506.83084 23.123389,543.53329 -214.18387,668.41319 -214.18387,668.41319"
         style="fill:none;stroke:#000000;stroke-width:3.125;stroke-linecap:butt;stroke-linejoin:miter;stroke-miterlimit:4;stroke-opacity:1;stroke-dasharray:none" />
      <path
         sodipodi:nodetypes="cc"
         inkscape:connector-curvature="0"
         id="path4403"
         d="m -337.89603,248.78584 c -108.08645,76.48907 -192.15139,162.47941 -312.64221,209.60665"
         style="fill:none;stroke:#000000;stroke-width:3.125;stroke-linecap:butt;stroke-linejoin:miter;stroke-miterlimit:4;stroke-opacity:1;stroke-dasharray:none" />
      <path
         sodipodi:nodetypes="cc"
         inkscape:connector-curvature="0"
         id="path4405"
         d="m 350,216.6479 c 23.21627,15.57709 41.52424,33.95893 51.42857,57.14285"
         style="fill:none;stroke:#000000;stroke-width:3.125;stroke-linecap:butt;stroke-linejoin:miter;stroke-miterlimit:4;stroke-opacity:1;stroke-dasharray:none" />
      <path
         sodipodi:nodetypes="cc"
         inkscape:connector-curvature="0"
         id="path4407"
         d="m 421.42857,399.50504 c 12.44165,5.16232 58.00001,41.44653 53.57143,74.28572"
         style="fill:none;stroke:#000000;stroke-width:3.125;stroke-linecap:butt;stroke-linejoin:miter;stroke-miterlimit:4;stroke-opacity:1;stroke-dasharray:none" />
      <path
         sodipodi:nodetypes="ccsc"
         inkscape:connector-curvature="0"
         id="path4409"
         d="m 503.57143,341.29076 c 37.38636,71.3873 111.69745,84.79766 143.21428,37.14286 14.55536,-24.84201 -22.08298,-68.669 -51.07143,-67.85715 -34.23379,0.95875 -97.77533,18.18302 -92.14285,30.71429 z"
         style="fill:#d1abad;fill-opacity:1;stroke:#000000;stroke-width:3.125;stroke-linecap:butt;stroke-linejoin:miter;stroke-miterlimit:4;stroke-opacity:1;stroke-dasharray:none" />
      <path
         sodipodi:nodetypes="zzzz"
         inkscape:connector-curvature="0"
         id="path4411"
         d="m 468.57143,169.50504 c -15.87526,27.16698 80.07853,95.72575 128.57143,76.42857 48.49291,-19.29719 30.69311,-75.91487 -0.35714,-94.64285 -31.05025,-18.72799 -112.33903,-8.9527 -128.21429,18.21428 z"
         style="fill:#d1abad;fill-opacity:1;stroke:#000000;stroke-width:3.125;stroke-linecap:butt;stroke-linejoin:miter;stroke-miterlimit:4;stroke-opacity:1;stroke-dasharray:none" />
    </g>
  </g>
</svg>
