<?xml version="1.0" encoding="UTF-8" standalone="no"?>
<!-- Created with Inkscape (http://www.inkscape.org/) -->

<svg
   xmlns:dc="http://purl.org/dc/elements/1.1/"
   xmlns:cc="http://creativecommons.org/ns#"
   xmlns:rdf="http://www.w3.org/1999/02/22-rdf-syntax-ns#"
   xmlns:svg="http://www.w3.org/2000/svg"
   xmlns="http://www.w3.org/2000/svg"
   xmlns:xlink="http://www.w3.org/1999/xlink"
   xmlns:sodipodi="http://sodipodi.sourceforge.net/DTD/sodipodi-0.dtd"
   xmlns:inkscape="http://www.inkscape.org/namespaces/inkscape"
   width="1429.6213"
   height="1356.1245"
   id="svg2996"
   version="1.1"
   inkscape:version="0.48.1 "
   sodipodi:docname="ipod-nano.svg">
  <title
     id="title3785">IPod-nano</title>
  <defs
     id="defs2998">
    <linearGradient
       inkscape:collect="always"
       id="linearGradient3831">
      <stop
         style="stop-color:#000000;stop-opacity:1;"
         offset="0"
         id="stop3833" />
      <stop
         style="stop-color:#000000;stop-opacity:0;"
         offset="1"
         id="stop3835" />
    </linearGradient>
    <linearGradient
       inkscape:collect="always"
       xlink:href="#linearGradient3831"
       id="linearGradient3837"
       x1="-114.28571"
       y1="489.50504"
       x2="885.71429"
       y2="489.50504"
       gradientUnits="userSpaceOnUse" />
  </defs>
  <sodipodi:namedview
     id="base"
     pagecolor="#ffffff"
     bordercolor="#666666"
     borderopacity="1.0"
     inkscape:pageopacity="0.0"
     inkscape:pageshadow="2"
     inkscape:zoom="0.5"
     inkscape:cx="111.66526"
     inkscape:cy="1221.2777"
     inkscape:document-units="px"
     inkscape:current-layer="layer1"
     showgrid="false"
     inkscape:window-width="1920"
     inkscape:window-height="1028"
     inkscape:window-x="-4"
     inkscape:window-y="-4"
     inkscape:window-maximized="1"
     inkscape:snap-midpoints="true"
     inkscape:object-nodes="true"
     inkscape:object-paths="true"
     inkscape:snap-smooth-nodes="true"
     inkscape:snap-nodes="true"
     fit-margin-top="0"
     fit-margin-left="0"
     fit-margin-right="0"
     fit-margin-bottom="0" />
  <metadata
     id="metadata3001">
    <rdf:RDF>
      <cc:Work
         rdf:about="">
        <dc:format>image/svg+xml</dc:format>
        <dc:type
           rdf:resource="http://purl.org/dc/dcmitype/StillImage" />
        <dc:title>IPod-nano</dc:title>
      </cc:Work>
    </rdf:RDF>
  </metadata>
  <g
     inkscape:label="Ebene 1"
     inkscape:groupmode="layer"
     id="layer1"
     transform="translate(609.26911,-620.74762)">
    <g
       id="g3030">
      <g
         id="g3010">
        <path
           id="path4059"
           d="m 435.95829,636.28861 c -0.11294,0 -0.25624,0.0572 -0.25624,0.17092 l 0,21.45051 c -0.0164,0.14303 0,0.2834 0,0.4273 0,8.38445 28.78597,15.20087 64.26606,15.21191 l 158.61412,0 c 35.48009,-0.0109 64.26606,-6.82746 64.26606,-15.21191 0,-0.14385 0.0164,-0.28427 0,-0.4273 l 0,-21.45051 c 0,-0.11376 -0.14357,-0.17092 -0.25624,-0.17092 l -64.00969,0 0,6.83682 -158.61411,0 0,-6.83682 -64.00968,0 z"
           style="opacity:0.68686865;fill:#000000;fill-opacity:1;fill-rule:nonzero;stroke:none"
           inkscape:connector-curvature="0" />
        <path
           id="path4061"
           d="m 499.96798,621.24762 c -35.48009,0.0109 -64.26607,6.82746 -64.26607,15.21191 0,8.38445 28.78598,15.20087 64.26607,15.21192 l 158.61411,0 c 35.48009,-0.0109 64.26606,-6.82747 64.26606,-15.21192 0,-8.38445 -28.78597,-15.20097 -64.26606,-15.21191 l -158.61411,0 z"
           style="fill:#000000;fill-opacity:1;fill-rule:nonzero;stroke:#ffffff;stroke-width:1;stroke-opacity:1"
           inkscape:connector-curvature="0" />
      </g>
      <g
         transform="matrix(2.7347261,0,0,2.7347261,1052.5784,-1077.6946)"
         id="g3879">
        <path
           inkscape:connector-curvature="0"
           style="fill:#6c6c6c;fill-opacity:1;fill-rule:nonzero;stroke:#000000;stroke-width:1.8283366;stroke-miterlimit:4;stroke-opacity:1;stroke-dasharray:none"
           d="m -579.83168,636.82234 c -14.92729,0 -26.9375,12.68302 -26.9375,28.4375 l 0,422.34376 c 0,15.7545 12.01021,28.4375 26.9375,28.4375 l 467.0625,0 c 14.92729,0 26.9375,-12.683 26.9375,-28.4375 l 0,-422.34376 c 0,-15.75448 -12.01021,-28.4375 -26.9375,-28.4375 l -467.0625,0 z m 48.03125,54.125 371,0 0,370.99996 -371,0 0,-370.99996 z"
           id="use3875" />
        <path
           style="opacity:0.90235691;fill:#000000;fill-opacity:1;fill-rule:nonzero;stroke:none"
           d="m -552.82733,648.32345 c -14.92729,0 -26.9375,12.68302 -26.9375,28.4375 l 0,399.34375 c 0,15.7545 12.01021,28.4375 26.9375,28.4375 l 413.0625,0 c 14.92729,0 26.9375,-12.683 26.9375,-28.4375 l 0,-399.34375 c 0,-15.75448 -12.01021,-28.4375 -26.9375,-28.4375 l -413.0625,0 z m 21.03125,42.625 371,0 0,370.99995 -371,0 0,-370.99995 z"
           id="use3877"
           inkscape:connector-curvature="0" />
      </g>
    </g>
  </g>
</svg>
