<?xml version="1.0" encoding="UTF-8" standalone="no"?>
<!-- Created with Inkscape (http://www.inkscape.org/) -->

<svg
   xmlns:dc="http://purl.org/dc/elements/1.1/"
   xmlns:cc="http://creativecommons.org/ns#"
   xmlns:rdf="http://www.w3.org/1999/02/22-rdf-syntax-ns#"
   xmlns:svg="http://www.w3.org/2000/svg"
   xmlns="http://www.w3.org/2000/svg"
   xmlns:sodipodi="http://sodipodi.sourceforge.net/DTD/sodipodi-0.dtd"
   xmlns:inkscape="http://www.inkscape.org/namespaces/inkscape"
   width="213.69559"
   height="377.3396"
   id="svg3976"
   version="1.1"
   inkscape:version="0.48.4 r9939"
   sodipodi:docname="erhobener arm.svg"
   inkscape:export-filename="C:\Users\wollknaeul\Desktop\erhobener arm.png"
   inkscape:export-xdpi="12"
   inkscape:export-ydpi="12">
  <defs
     id="defs3978" />
  <sodipodi:namedview
     id="base"
     pagecolor="#ffffff"
     bordercolor="#666666"
     borderopacity="1.0"
     inkscape:pageopacity="0.0"
     inkscape:pageshadow="2"
     inkscape:zoom="0.49497475"
     inkscape:cx="-164.64564"
     inkscape:cy="289.12993"
     inkscape:document-units="px"
     inkscape:current-layer="layer6"
     showgrid="false"
     inkscape:window-width="1366"
     inkscape:window-height="716"
     inkscape:window-x="-4"
     inkscape:window-y="-4"
     inkscape:window-maximized="1"
     fit-margin-top="0"
     fit-margin-left="0"
     fit-margin-right="0"
     fit-margin-bottom="0" />
  <metadata
     id="metadata3981">
    <rdf:RDF>
      <cc:Work
         rdf:about="">
        <dc:format>image/svg+xml</dc:format>
        <dc:type
           rdf:resource="http://purl.org/dc/dcmitype/StillImage" />
        <dc:title></dc:title>
      </cc:Work>
    </rdf:RDF>
  </metadata>
  <g
     inkscape:groupmode="layer"
     id="layer6"
     inkscape:label="füllung"
     style="display:inline"
     transform="translate(-319.86208,88.104218)">
    <path
       style="fill:#f7f6f4;fill-opacity:1;stroke-width:6;stroke-miterlimit:4;stroke-dasharray:none;display:inline"
       d="m 361.29594,281.6646 c -0.29455,-0.94953 -1.31158,-5.26213 -2.26006,-9.58356 -2.84737,-12.97312 -11.79536,-37.86373 -22.59666,-62.85714 -5.60272,-12.96428 -10.18073,-25.5 -10.17335,-27.85714 l 0.0134,-4.28572 12.48654,-0.23815 c 22.73992,-0.4337 64.23065,-9.14748 82.41687,-17.30897 4.74991,-2.13163 11.33374,-5.93477 14.63073,-8.45142 l 5.99452,-4.57572 7.10052,7.76911 c 15.6555,17.12961 28.32257,40.66485 39.20468,72.84175 3.44763,10.19416 6.52863,19.45129 6.84669,20.5714 1.23855,4.36207 -44.15474,18.54087 -90.85032,28.3775 -32.07267,6.75625 -42.04963,8.06078 -42.81358,5.59806 l 0,0 z"
       id="path5069"
       inkscape:connector-curvature="0" />
    <path
       style="fill:#e5e1d8;fill-opacity:1;stroke-width:1;stroke-miterlimit:4;stroke-dasharray:none;display:inline"
       d="m 497.14912,246.85476 c -1.36844,-2.36224 -2.54315,-5.71317 -7.66754,-21.87213 -2.85787,-9.01183 -6.21673,-18.19997 -9.53897,-26.09375 l -0.77864,-1.85009 2.21574,-2.6956 c 1.21866,-1.48258 3.23113,-4.34458 4.47217,-6.36 l 2.25644,-3.6644 1.25335,1.6441 c 2.45004,3.21385 5.64654,8.82493 9.56851,16.79638 5.97217,12.13848 8.54872,20.94852 8.64118,29.54696 0.087,8.09154 -1.85702,12.62011 -6.54855,15.25468 l -2.61419,1.46801 -1.2595,-2.17416 0,0 z"
       id="path4810"
       inkscape:connector-curvature="0" />
    <path
       style="fill:#f4c8b2;fill-opacity:1;stroke-width:1;stroke-miterlimit:4;stroke-dasharray:none;display:inline"
       d="m 476.44924,191.55058 c -7.36711,-15.03877 -17.75309,-30.28941 -28.83017,-42.33387 l -4.1847,-4.55017 0.67105,-1.93826 c 0.92988,-2.68592 4.20996,-7.13497 10.29404,-13.96268 10.15072,-11.39143 14.7794,-18.06156 16.62768,-23.96124 0.52731,-1.68319 2.43781,-6.128678 4.24555,-9.878868 19.10064,-39.62464 23.69699,-85.504108 13.81382,-137.885826 -0.65516,-3.4724 -2.08109,-10.581538 -3.16874,-15.798085 l -1.97755,-9.484631 2.19012,-4.277128 c 2.7772,-5.423634 4.90242,-7.300527 9.96986,-8.804882 5.67107,-1.683554 5.32214,-1.80959 16.29938,5.887503 5.61178,3.934911 6.44324,5.591331 6.28788,12.52671 -0.056,2.500127 -0.16109,9.659584 -0.23355,15.909902 l -0.13174,11.364217 1.8482,6.060915 c 1.01651,3.333503 3.12588,11.021527 4.68749,17.084493 l 2.83929,11.023577 -1.75665,4.381249 c -6.14426,15.324326 -7.07228,23.912546 -5.52179,51.100806 0.71512,12.53969 0.45289,17.29285 -1.90878,34.59772 -0.93109,6.82249 -1.68522,14.847678 -1.82729,19.445438 -0.27451,8.88363 -0.66486,10.46112 -5.76798,23.30979 -6.34538,15.97643 -20.34283,46.32008 -22.93516,49.7188 -0.6944,0.91041 -1.26256,1.84749 -1.26256,2.08239 0,0.53369 -5.54165,8.99028 -7.14776,10.90751 l -1.18807,1.41822 -1.93187,-3.9436 z"
       id="path4812"
       inkscape:connector-curvature="0" />
  </g>
  <g
     inkscape:label="innen"
     inkscape:groupmode="layer"
     id="layer1"
     style="display:inline"
     transform="translate(-319.86208,88.104218)">
    <path
       sodipodi:nodetypes="cczzc"
       inkscape:connector-curvature="0"
       id="path4196"
       d="m 470.75221,103.19337 c -5.28355,17.84948 -27.00812,30.92544 -28.11407,41.88215 55.46109,56.20032 46.37855,121.05821 61.8201,101.50882 15.44155,-19.54938 -17.45184,-67.28373 -16.80961,-63.83644 0.64222,3.4473 33.26987,-68.30898 29.48949,-69.07469"
       style="fill:none;stroke:#000000;stroke-width:6;stroke-linecap:butt;stroke-linejoin:miter;stroke-miterlimit:4;stroke-opacity:1;stroke-dasharray:none;display:inline;enable-background:new" />
    <path
       sodipodi:nodetypes="cc"
       inkscape:connector-curvature="0"
       id="path4202"
       d="m 478.4408,196.67688 c 2.87023,-3.93878 3.76508,-3.63107 9.46705,-13.65734"
       style="fill:none;stroke:#000000;stroke-width:6;stroke-linecap:butt;stroke-linejoin:miter;stroke-miterlimit:4;stroke-opacity:1;stroke-dasharray:none;display:inline;enable-background:new" />
    <path
       style="fill:#000000;fill-opacity:0;stroke-width:1;stroke-miterlimit:4;stroke-dasharray:none"
       d="m 382.93036,278.29623 c 0,-0.12726 -1.03319,-5.38581 -2.29599,-11.68568 -5.90927,-29.48036 -12.98914,-53.97616 -22.40164,-77.50796 -2.36159,-5.90411 -2.5541,-6.69032 -2.25707,-9.21764 0.17861,-1.51964 0.46391,-2.76441 0.63401,-2.76616 1.25363,-0.0128 25.76953,-4.25328 30.61384,-5.29519 24.06924,-5.17678 40.52983,-11.57082 51.56866,-20.03163 3.23776,-2.4816 3.37097,-2.5328 4.21983,-1.62197 13.41104,14.3902 24.62625,31.42439 32.85299,49.89862 4.17013,9.36459 7.34898,18.08667 11.60957,31.85412 1.71935,5.55584 3.69624,11.53796 4.39308,13.29362 0.69683,1.75565 1.18818,3.25735 1.09189,3.33711 -0.0963,0.0798 -3.12978,1.30002 -6.74107,2.71169 -19.64014,7.67739 -39.62197,13.51848 -67.93276,19.85811 -11.59006,2.59536 -35.35534,7.41691 -35.35534,7.17296 z"
       id="path4216"
       inkscape:connector-curvature="0" />
  </g>
  <g
     inkscape:groupmode="layer"
     id="layer5"
     inkscape:label="aussen"
     style="display:inline"
     transform="translate(-319.86208,88.104218)">
    <path
       sodipodi:nodetypes="cczccccc"
       inkscape:connector-curvature="0"
       id="path4182"
       d="m 470.13532,103.29234 c 45.59481,-82.113247 9.59089,-170.712657 13.52873,-172.728707 5.16823,-11.153241 6.91084,-11.166081 14.0074,-13.275591 7.09664,-2.109495 10.60076,4.755149 19.52863,9.480287 6.58556,13.217974 -0.65054,10.895454 2.06178,37.550724 2.28552,6.765204 6.32299,22.893275 9.29581,34.3736196 -15.45496,34.2081004 -3.97007,45.0089404 -7.67192,77.9847504 -1.39319,12.76594 -6.60553,40.233267 -2.11444,42.451867"
       style="fill:none;stroke:#000000;stroke-width:10;stroke-linecap:butt;stroke-linejoin:miter;stroke-miterlimit:4;stroke-opacity:1;stroke-dasharray:none;display:inline;filter:url(#filter3912);enable-background:new" />
    <path
       sodipodi:nodetypes="ccc"
       inkscape:connector-curvature="0"
       id="path4198"
       d="m 360.20918,284.23537 c 0.25011,-0.0504 9.33611,-0.0511 18.36191,-1.49044 41.07694,-8.27345 82.01389,-16.25934 119.55193,-32.76601"
       style="fill:none;stroke:#000000;stroke-width:10;stroke-linecap:butt;stroke-linejoin:miter;stroke-miterlimit:4;stroke-opacity:1;stroke-dasharray:none;display:inline;enable-background:new" />
    <path
       sodipodi:nodetypes="ccc"
       inkscape:connector-curvature="0"
       id="path4200"
       d="m 324.86208,175.6666 c 0.14558,-0.0208 10.07703,1.53681 26.76391,-0.4412 35.81363,-5.12485 72.99594,-12.72822 90.96864,-31.05456"
       style="fill:none;stroke:#000000;stroke-width:10;stroke-linecap:butt;stroke-linejoin:miter;stroke-miterlimit:4;stroke-opacity:1;stroke-dasharray:none;display:inline;enable-background:new" />
    <path
       style="fill:none;stroke:#000000;stroke-width:10;stroke-linecap:butt;stroke-linejoin:miter;stroke-miterlimit:4;stroke-opacity:1;stroke-dasharray:none;display:inline;enable-background:new"
       d="m 470.75221,103.19338 c -5.28355,17.84948 -27.00812,30.92544 -28.11407,41.88215 m 54.24396,105.42316 c 0.22935,-0.29037 5.49881,-1.97593 8.23249,-4.80386 13.81544,-20.0666 -18.09865,-66.34301 -17.46596,-62.94692 0.63269,3.39609 33.26987,-68.30898 29.48949,-69.07469"
       id="path4732"
       inkscape:connector-curvature="0"
       sodipodi:nodetypes="cccczc" />
  </g>
</svg>
