<?xml version="1.0" encoding="UTF-8" standalone="no"?>
<!-- Created with Inkscape (http://www.inkscape.org/) -->

<svg
   xmlns:dc="http://purl.org/dc/elements/1.1/"
   xmlns:cc="http://creativecommons.org/ns#"
   xmlns:rdf="http://www.w3.org/1999/02/22-rdf-syntax-ns#"
   xmlns:svg="http://www.w3.org/2000/svg"
   xmlns="http://www.w3.org/2000/svg"
   xmlns:sodipodi="http://sodipodi.sourceforge.net/DTD/sodipodi-0.dtd"
   xmlns:inkscape="http://www.inkscape.org/namespaces/inkscape"
   width="403.58521"
   height="1185.3973"
   id="svg3976"
   version="1.1"
   inkscape:version="0.48.4 r9939"
   sodipodi:docname="erhobener arm.svg"
   inkscape:export-filename="C:\Users\wollknaeul\Desktop\stehend.png"
   inkscape:export-xdpi="12"
   inkscape:export-ydpi="12">
  <defs
     id="defs3978" />
  <sodipodi:namedview
     id="base"
     pagecolor="#ffffff"
     bordercolor="#666666"
     borderopacity="1.0"
     inkscape:pageopacity="0.0"
     inkscape:pageshadow="2"
     inkscape:zoom="0.49497475"
     inkscape:cx="127.72317"
     inkscape:cy="549.61436"
     inkscape:document-units="px"
     inkscape:current-layer="layer6"
     showgrid="false"
     inkscape:window-width="1366"
     inkscape:window-height="716"
     inkscape:window-x="-4"
     inkscape:window-y="-4"
     inkscape:window-maximized="1"
     fit-margin-top="0"
     fit-margin-left="0"
     fit-margin-right="0"
     fit-margin-bottom="0" />
  <metadata
     id="metadata3981">
    <rdf:RDF>
      <cc:Work
         rdf:about="">
        <dc:format>image/svg+xml</dc:format>
        <dc:type
           rdf:resource="http://purl.org/dc/dcmitype/StillImage" />
        <dc:title></dc:title>
      </cc:Work>
    </rdf:RDF>
  </metadata>
  <g
     inkscape:groupmode="layer"
     id="layer6"
     inkscape:label="füllung"
     style="display:inline"
     transform="translate(-181.3544,83.593802)">
    <path
       style="fill:#e5e1d8;fill-opacity:1;stroke-width:1;stroke-miterlimit:4;stroke-dasharray:none;display:inline;filter:url(#filter3970);enable-background:new"
       d="m 266.66425,476.01724 c -2.61122,-1.592 -4.48687,-3.67888 -4.16813,-4.63752 0.31874,-0.95864 10.16947,-4.71205 21.89051,-8.34092 11.72105,-3.62886 23.10287,-7.31851 25.29295,-8.19922 3.44524,-1.38545 4.74498,-1.09635 9.64286,2.14492 3.11349,2.06041 5.6609,4.29646 5.6609,4.96899 0,1.76343 -20.79421,11.95994 -29.91294,14.66791 -10.91175,3.24044 -22.5046,2.99388 -28.40615,-0.60416 z"
       id="path3942"
       inkscape:connector-curvature="0" />
    <path
       style="fill:#f7f6f4;fill-opacity:1;stroke-width:1;stroke-miterlimit:4;stroke-dasharray:none;display:inline;filter:url(#filter3970);enable-background:new"
       d="m 225.69762,554.4074 c -10.80565,-4.10515 -24.91049,-15.43123 -33.06286,-26.54923 -2.16335,-2.95035 -5.17589,-6.39506 -6.69454,-7.65495 -2.7097,-2.248 -2.66534,-2.58084 2.37978,-17.85714 8.72678,-26.42414 10.32299,-37.76617 8.2935,-58.93036 -6.66081,-69.46127 -7.57099,-84.26625 -6.86321,-111.63608 0.77392,-29.92739 2.94904,-44.83756 9.03414,-61.92799 6.41024,-18.00359 18.74756,-41.08227 33.335,-62.35773 26.53664,-38.70313 40.05504,-63.22524 44.50233,-80.72638 0.99662,-3.92192 1.98221,-7.38087 2.19021,-7.68655 0.208,-0.30569 11.14586,9.91501 24.30634,22.71266 13.16049,12.79765 28.86101,27.3976 34.89005,32.44433 10.54716,8.82872 11.15367,9.67692 16.03096,22.41932 9.39421,24.54329 16.74913,52.18444 22.91523,86.58101 2.07255,11.56141 4.0108,23.88604 5.84703,37.11276 1.2544,9.03571 4.4803,28.32143 7.16866,42.85714 2.68835,14.53571 6.84144,37.03571 9.22907,50 2.38764,12.96429 4.74078,25.01786 5.22921,26.78571 0.48843,1.76786 0.25186,3.21429 -0.5257,3.21429 -0.77757,0 -8.04098,-5.78571 -16.14093,-12.85714 -8.09994,-7.07143 -15.41374,-12.87087 -16.25287,-12.88765 -2.06206,-0.0413 -9.33997,-10.48712 -13.41558,-19.25521 -7.38888,-15.89609 -12.67512,-41.37594 -17.48653,-84.28571 -0.88102,-7.85715 -1.86387,-14.55358 -2.18413,-14.88096 -1.85424,-1.89546 -1.66214,3.29827 0.95006,25.68691 5.55288,47.5927 12.42051,73.1182 23.6364,87.85133 l 3.32794,4.37157 -6.09802,5.09732 c -10.07387,8.42071 -25.27807,18.16754 -37.39868,23.97488 -17.5472,8.40737 -60.11067,22.17422 -61.51778,19.89747 -2.02878,-3.28264 -9.61668,-27.26602 -13.38944,-42.32057 -5.27305,-21.04118 -7.10698,-30.15394 -14.31009,-71.10653 -7.20754,-40.97774 -14.47992,-75 -16.03154,-75 -1.70726,0 -1.49878,1.83606 1.59508,14.0477 2.62604,10.36518 5.3338,24.61078 15.79444,83.09516 5.58655,31.23384 12.88246,61.40006 19.33011,79.92366 2.72678,7.83386 4.95779,15.11408 4.95779,16.1783 0,1.06421 1.97425,3.82306 4.38722,6.13077 4.18473,4.0022 4.95942,4.1916 16.78571,4.10384 10.73502,-0.0797 13.93184,-0.73658 23.82707,-4.8963 6.28571,-2.64235 14.27931,-6.56343 17.76355,-8.71351 l 6.33498,-3.90922 20.80788,10.34872 c 11.44433,5.69178 25.12583,12.19874 30.40335,14.4599 8.34344,3.57476 9.49405,4.51523 8.8183,7.20767 -0.91519,3.64639 4.30958,14.51364 15.70021,32.65566 4.36619,6.9541 7.62986,13.14324 7.25262,13.75365 -1.32723,2.14749 -15.39989,5.97166 -22.62773,6.14896 -6.29115,0.15433 -8.9036,-0.75103 -18.73887,-6.49397 -15.1002,-8.81721 -25.4542,-11.73049 -38.45803,-10.82083 -9.99116,0.69893 -13.97507,1.8638 -57.25626,16.74152 -23.07567,7.93215 -39.72026,10.31443 -48.57143,6.9518 z"
       id="path3940"
       inkscape:connector-curvature="0"
       sodipodi:nodetypes="csssssssscsssssssssscssssscsssssssssssssscsssscsssscc" />
    <path
       style="fill:#f4c8b2;fill-opacity:1;stroke-width:1;stroke-miterlimit:4;stroke-dasharray:none;display:inline;filter:url(#filter3970);enable-background:new"
       d="m 339.67014,172.8764 c -5.32461,-4.45111 -21.15497,-19.41223 -35.17857,-33.24694 -24.75978,-24.42627 -25.49746,-25.23367 -25.49746,-27.90721 0,-1.51425 -0.68783,-5.46961 -1.52851,-8.78967 l -1.52852,-6.036487 1.54129,-1.95942 c 1.93525,-2.46029 3.37575,-7.50224 4.37289,-15.30574 1.24335,-9.73038 2.50771,-13.35405 5.13318,-14.71174 4.01144,-2.0744 8.26104,-0.0162 20.4315,9.89551 10.43724,8.50015 16.16559,10.90313 21.08829,8.8463 3.24753,-1.35691 4.81702,-4.38872 7.63274,-14.74435 2.48292,-9.13165 4.17617,-12.81973 6.85211,-14.92463 2.60096,-2.04591 15.58336,-6.11286 24.21932,-7.5871 12.41664,-2.11963 24.60141,-0.48017 31.55646,4.24591 3.15502,2.14389 7.43493,2.42705 11.4333,0.75643 3.05323,-1.27572 3.3434,-1.12917 2.44465,1.23472 -0.37235,0.97934 -1.24267,4.62898 -1.93405,8.1103 -1.12668,5.67318 -1.54868,6.61553 -4.06869,9.08565 -3.34618,3.27993 -3.33227,3.6699 0.57988,16.26529 3.6463,11.73948 4.10991,14.540527 2.8899,17.460417 -0.65072,1.55738 -1.99259,2.91417 -3.78806,3.83015 -4.23571,2.1609 -4.66943,2.9575 -3.70202,6.79946 1.65574,6.5755 -1.00899,13.61233 -5.73968,15.15698 -3.88168,1.26743 -4.75715,2.96834 -5.31218,10.32084 -0.57752,7.6503 -1.84455,10.63234 -6.18276,14.55165 -5.07406,4.58412 -14.57685,7.94794 -27.54206,9.7494 -3.09908,0.43061 -6.03648,1.11578 -6.52755,1.52261 -0.55605,0.46067 -0.92473,2.79486 -0.97736,6.18794 -0.16329,10.52643 0.41832,10.46135 -10.66804,1.19373 l 0,0 z M 377.2084,70.199863 c 3.87539,-1.48331 5.39701,-1.63293 15.89286,-1.56277 11.39368,0.0762 14.8476,-0.51069 8.29316,-1.40908 -5.00788,-0.68641 -18.07043,-0.51188 -21.53703,0.28776 -3.92275,0.90487 -9.4347,3.48711 -9.4347,4.41999 0,0.79281 0.53977,0.65473 6.78571,-1.7359 l 0,0 z"
       id="path3952"
       inkscape:connector-curvature="0" />
    <path
       style="fill:#fe1a00;fill-opacity:1;stroke-width:1;stroke-miterlimit:4;stroke-dasharray:none"
       d="m 275.26196,90.380013 c -0.3027,-1.92239 -1.09026,-4.58396 -1.75013,-5.91461 -1.15997,-2.33911 -1.737,-2.83142 -7.5717,-6.45997 -0.89338,-0.55558 -2.32529,-1.88356 -3.18203,-2.95107 -1.39843,-1.74245 -1.55771,-2.29335 -1.55771,-5.38748 0,-3.30649 0.16181,-3.76409 3.98145,-11.25925 3.49177,-6.8518 3.94002,-8.03348 3.64465,-9.60794 -0.2546,-1.35718 -0.79479,-2.06883 -2.21368,-2.91639 -2.49229,-1.48874 -3.61977,-2.92928 -3.63342,-4.64229 -0.0123,-1.54303 1.46348,-4.7796 3.29307,-7.22209 5.40263,-7.21247 6.79722,-9.49265 6.79722,-11.11353 0,-1.60635 -0.20794,-1.81306 -3.4831,-3.4624 -3.23274,-1.62798 -5.60827,-3.737107 -5.60827,-4.979324 0,-1.257504 4.7803,-4.8927324 10.36487,-7.8820604 6.82545,-3.65356 9.06846,-5.17222 9.88068,-6.68987298 0.48956,-0.91474402 0.24994,-1.36446202 -1.87827,-3.52515602 -2.00617,-2.036799 -2.34401,-2.631823 -1.90229,-3.350381 1.14846,-1.868196 5.76695,-3.6545016 16.50515,-6.3837386 6.03495,-1.533852 11.48377,-3.053171 12.10849,-3.376264 3.2134,-1.661917 3.74063,-3.522446 1.51465,-5.344996 l -1.38896,-1.137231 3.283,-0.01017 c 1.80565,-0.0056 5.92748,0.208993 9.15963,0.47686 3.23216,0.267866 9.04388,0.523534 12.91495,0.568149 8.40792,0.0969 10.0422,-0.394183 9.92367,-2.982001 -0.0689,-1.504018 0.0199,-1.595531 1.26269,-1.301638 3.01843,0.71379 14.44702,5.354131 21.53984,8.745806 8.64032,4.131667 12.57207,5.578343 15.16073,5.578343 1.5403,0 1.90476,-0.229913 2.46081,-1.552361 l 0.65271,-1.552361 4.08322,5.4667016 c 4.91633,6.58208 6.7887,8.467245 8.07555,8.130727 0.75311,-0.196942 1.44169,0.633697 3.3991,4.10034 5.15302,9.1262024 8.82637,13.6912254 11.01696,13.6912254 1.2874,0 2.58372,-0.917862 3.01892,-2.137555 0.49239,-1.379979 0.83697,0.165003 1.60529,7.197568 1.02825,9.41175 1.26048,10.67289 2.15398,11.69758 0.87934,1.00844 0.81214,1.28035 -2.25293,9.11523 l -2.31686,5.9223 -3.66939,1.52757 c -5.08677,2.11763 -7.13964,2.03051 -11.29348,-0.47928 -6.71485,-4.05718 -12.99822,-5.35046 -23.88889,-4.91697 -10.41157,0.41442 -22.24941,3.14956 -30.97429,7.15661 -5.27505,2.42266 -6.45247,4.42418 -9.83393,16.71681 -3.51061,12.76215 -5.22967,15.17294 -10.47056,14.68384 -3.68504,-0.34389 -7.49155,-2.59984 -16.14025,-9.56559 -11.26127,-9.06995 -14.60862,-10.85142 -19.33731,-10.29138 -5.47607,0.64857 -6.7353,3.11862 -8.56312,16.79711 -1.08859,8.1465 -2.17651,12.3596 -3.50105,13.5583 -0.7712,0.69792 -0.88394,0.47598 -1.38966,-2.73572 l 0,0 z"
       id="path4814"
       inkscape:connector-curvature="0" />
    <path
       style="fill:#f4c8b2;fill-opacity:1;stroke-width:1;stroke-miterlimit:4;stroke-dasharray:none"
       d="m 238.28498,1047.8456 c -12.53326,-6.6331 -15.3472,-9.7266 -12.93974,-14.2249 1.12893,-2.1095 9.20745,-11.4312 17.95225,-20.7151 21.08263,-22.38214 25.7397,-31.93295 29.37882,-60.2507 l 1.22704,-9.54821 8.46975,5.35497 c 4.65835,2.94523 15.41843,8.78961 23.91128,12.98752 l 15.44154,7.63255 -4.74449,13.07092 c -4.5572,12.55496 -8.09325,30.79325 -6.6339,34.21655 0.3841,0.901 -5.21104,3.9949 -12.43363,6.8753 -16.09008,6.4168 -32.2724,16.4984 -37.8366,23.5721 -5.06417,6.4381 -11.03889,6.7202 -21.79232,1.029 l 0,0 z"
       id="path4955"
       inkscape:connector-curvature="0" />
    <path
       style="fill:#f4c8b2;fill-opacity:1;stroke-width:1;stroke-miterlimit:4;stroke-dasharray:none"
       d="m 347.08072,1083.2883 c -1.56888,-4.0885 9.52979,-15.6251 21.43122,-22.2769 7.46767,-4.1738 9.86327,-4.6552 14.14772,-2.8431 7.1321,3.0164 19.56668,13.538 17.93171,15.173 -0.73833,0.7383 -8.91476,3.9781 -18.16983,7.1995 -18.97513,6.6046 -33.42949,7.7283 -35.34082,2.7475 l 0,0 z"
       id="path4957"
       inkscape:connector-curvature="0" />
    <path
       style="fill:#fe1a00;fill-opacity:1;stroke-width:1;stroke-miterlimit:4;stroke-dasharray:none"
       d="m 315.0865,1098.3691 c -30.88307,-2.9021 -78.4497,-15.5199 -95.45942,-25.3222 -7.14656,-4.1184 -8.5863,-5.9825 -8.5863,-11.117 0,-3.393 1.97843,-9.0368 4.39652,-12.5418 2.41808,-3.505 4.58204,-6.6427 4.80881,-6.9726 0.22676,-0.3299 6.27878,2.6248 13.44893,6.566 7.17015,3.9412 15.08779,7.1658 17.59475,7.1658 2.70289,0 7.97952,-3.5049 12.96421,-8.6112 4.74785,-4.8637 15.16578,-11.8974 23.93887,-16.1624 15.46129,-7.5165 23.33863,-9.1912 26.99464,-5.739 1.05561,0.9968 14.41993,7.4791 29.69849,14.4052 15.27855,6.926 27.77919,13.2733 27.77919,14.105 0,0.8317 -2.66973,2.618 -5.93275,3.9696 -3.26301,1.3516 -9.62697,5.8679 -14.14213,10.0363 -8.7582,8.0855 -10.7022,15.7375 -5.16553,20.3325 4.10787,3.4092 19.5146,1.2387 37.65527,-5.305 14.10495,-5.088 17.6287,-5.2481 14.80084,-0.6725 -2.46528,3.9889 -17.24081,9.4665 -34.28677,12.7109 -21.1125,4.0183 -33.23889,4.7752 -50.50762,3.1524 l 0,0 z"
       id="path4959"
       inkscape:connector-curvature="0" />
    <path
       style="fill:#434bbf;fill-opacity:1;stroke-width:1;stroke-miterlimit:4;stroke-dasharray:none"
       d="M 331.24894,970.53027 C 309.02558,959.19452 287.0516,947.49045 282.41787,944.52121 l -8.42497,-5.3986 2.91918,-12.7034 c 4.03981,-17.58007 9.09837,-32.72403 26.22128,-78.49954 22.30107,-59.61854 25.26588,-71.021 26.49275,-101.8892 1.1757,-29.5808 -1.54244,-45.81575 -10.85488,-64.83424 -7.49797,-15.31285 -20.53496,-26.69141 -44.95171,-39.23344 -25.04884,-12.86671 -47.88068,-29.44667 -62.23387,-45.19282 -8.62864,-9.46603 -11.52245,-14.62762 -15.77682,-28.14055 -2.8655,-9.10153 -5.73177,-21.71709 -6.36948,-28.03458 l -1.15947,-11.48635 10.87538,10.52001 c 22.62415,21.88489 38.92437,23.82273 79.56574,9.45914 55.15862,-19.49433 61.82909,-19.97317 86.86017,-6.23532 16.23573,8.91069 24.57364,10.09181 37.83135,5.35907 6.98298,-2.49278 7.70972,-2.37947 10.28697,1.60391 1.52523,2.3574 5.73736,17.01411 9.36031,32.57046 14.90371,63.99414 22.33934,85.40615 42.4456,122.22846 5.15576,9.44215 6.07395,13.32977 6.11106,25.87441 0.024,8.1195 -0.97181,19.02915 -2.21298,24.24366 -2.90742,12.21501 -17.94871,44.13292 -33.50593,71.10023 -19.08041,33.0745 -26.34159,48.34623 -32.74899,68.87772 -3.26216,10.45306 -9.77421,31.27891 -14.47124,46.27967 -4.69703,15.00077 -9.56305,32.2065 -10.81337,38.23494 -1.25032,6.02845 -3.15882,11.17573 -4.24111,11.43837 -1.08229,0.26264 -20.15055,-8.79718 -42.3739,-20.13295 z"
       id="path4961"
       inkscape:connector-curvature="0" />
    <path
       style="fill:#f4c8b2;fill-opacity:1;stroke-width:1;stroke-miterlimit:4;stroke-dasharray:none"
       d="m 376.13787,644.72398 c -7.39949,-6.22627 -18.63917,-11.08404 -25.64571,-11.08404 -2.88027,0 -9.40418,-3.18199 -14.49755,-7.07107 -5.09339,-3.88909 -10.77159,-7.07107 -12.61823,-7.07107 -1.84664,0 -13.08743,-5.78794 -24.97954,-12.8621 -18.08664,-10.75904 -26.13619,-14.11717 -49.23035,-20.53801 -15.18458,-4.22175 -34.95101,-10.7713 -43.92538,-14.55457 -20.61746,-8.69156 -63.08053,-30.57341 -65.88346,-33.95074 -1.61142,-1.94164 0.60802,-3.93531 9.24761,-8.30693 6.25235,-3.16368 17.65825,-10.48278 25.34644,-16.26466 l 13.97853,-10.51253 12.35297,10.51253 c 13.91882,11.84507 12.74224,10.99411 36.348,26.28856 24.22817,15.69771 60.06206,35.46187 110.37228,60.87576 38.56594,19.48134 51.02215,27.69814 51.02215,33.65698 0,2.30456 -12.14653,15.96029 -14.19642,15.96029 -0.91079,0 -4.3719,-2.28528 -7.69134,-5.0784 z"
       id="path4963"
       inkscape:connector-curvature="0"
       transform="translate(181.3544,-83.593802)" />
  </g>
  <g
     inkscape:label="innen"
     inkscape:groupmode="layer"
     id="layer1"
     style="display:inline"
     transform="translate(-181.3544,83.593802)">
    <path
       style="fill:none;stroke:#000000;stroke-width:6;stroke-linecap:butt;stroke-linejoin:miter;stroke-miterlimit:4;stroke-opacity:1;stroke-dasharray:none;display:inline;enable-background:new"
       d="m 217.57793,278.79629 c 16.30736,63.69135 19.27461,131.29016 43.57142,191.07144"
       id="path3920"
       inkscape:connector-curvature="0"
       sodipodi:nodetypes="cc" />
    <path
       style="fill:none;stroke:#000000;stroke-width:6;stroke-linecap:butt;stroke-linejoin:miter;stroke-miterlimit:4;stroke-opacity:1;stroke-dasharray:none;display:inline;enable-background:new"
       d="m 337.93507,300.22486 c 5.06507,44.13803 8.18892,93.92224 30.54841,117.12492"
       id="path3922"
       inkscape:connector-curvature="0"
       sodipodi:nodetypes="cc" />
    <path
       style="fill:none;stroke:#000000;stroke-width:6;stroke-linecap:butt;stroke-linejoin:miter;stroke-miterlimit:4;stroke-opacity:1;stroke-dasharray:none;display:inline;enable-background:new"
       d="m 278.29221,115.22486 c 24.16667,22.61905 46.28664,48.30814 72.5,67.85714"
       id="path3924"
       inkscape:connector-curvature="0"
       sodipodi:nodetypes="cc" />
    <path
       style="fill:none;stroke:#000000;stroke-width:6;stroke-linecap:butt;stroke-linejoin:miter;stroke-miterlimit:4;stroke-opacity:1;stroke-dasharray:none;display:inline;enable-background:new"
       d="m 415.07793,48.439131 c -4.24099,1.42454 -9.73127,5.83594 -14.99823,1.92734 -14.4899,-10.75294 -41.14117,-4.63608 -56.04362,1.71352 -10.73867,4.57551 -6.99844,30.59818 -17.96327,31.52424 -13.01628,1.09933 -28.1773,-25.26382 -39.94004,-19.50018 -7.21313,3.53437 -3.037,26.23 -10.34056,31.12081"
       id="path3926"
       inkscape:connector-curvature="0"
       sodipodi:nodetypes="cssssc" />
    <path
       style="fill:none;stroke:#000000;stroke-width:6;stroke-linecap:butt;stroke-linejoin:miter;stroke-miterlimit:4;stroke-opacity:1;stroke-dasharray:none;display:inline;enable-background:new"
       d="m 404.36364,68.439141 c -13.91213,-2.2815 -25.35824,-1.54897 -33.21428,3.57143"
       id="path3928"
       inkscape:connector-curvature="0"
       sodipodi:nodetypes="cc" />
    <path
       style="fill:none;stroke:#000000;stroke-width:6;stroke-linecap:butt;stroke-linejoin:miter;stroke-miterlimit:4;stroke-opacity:1;stroke-dasharray:none;display:inline;enable-background:new"
       d="m 414.32403,542.21979 c 0,0 -15.2066,8.36738 -28.53182,7.64793 -13.32522,-0.71945 -21.59719,-16.82028 -48.57143,-18.57143 -26.97424,-1.75115 -80.52255,31.8882 -107.14285,25.7143 -26.6203,-6.17392 -43.19634,-34.7908 -43.19634,-34.7908"
       id="path3930"
       inkscape:connector-curvature="0"
       sodipodi:nodetypes="czzzc" />
    <path
       style="fill:none;stroke:#000000;stroke-width:6;stroke-linecap:butt;stroke-linejoin:miter;stroke-miterlimit:4;stroke-opacity:1;stroke-dasharray:none;display:inline;enable-background:new"
       d="m 272.73864,940.61767 c 18.24341,12.1889 34.23527,20.0416 51.78571,28.3036"
       id="path3932"
       inkscape:connector-curvature="0"
       sodipodi:nodetypes="cc" />
    <path
       style="fill:none;stroke:#000000;stroke-width:6;stroke-linecap:butt;stroke-linejoin:miter;stroke-miterlimit:4;stroke-opacity:1;stroke-dasharray:none;display:inline;enable-background:new"
       d="m 378.54439,1053.7939 c 0,0 -38.88699,17.3326 -33.03789,30.931 5.8491,13.5984 57.99456,-10.6066 57.99456,-10.6066"
       id="path3934"
       inkscape:connector-curvature="0"
       sodipodi:nodetypes="czc" />
    <path
       style="fill:none;stroke:#000000;stroke-width:6;stroke-linecap:butt;stroke-linejoin:miter;stroke-miterlimit:4;stroke-opacity:1;stroke-dasharray:none;display:inline;enable-background:new"
       d="m 311.65407,1021.9544 c -3.6849,-3.8692 -47.25073,15.9313 -52.79278,29.1557 -5.54206,13.2244 -38.31889,-12.6987 -38.31889,-12.6987"
       id="path3936"
       inkscape:connector-curvature="0"
       sodipodi:nodetypes="czc" />
    <path
       style="fill:none;stroke:#000000;stroke-width:6;stroke-linecap:butt;stroke-linejoin:miter;stroke-miterlimit:4;stroke-opacity:1;stroke-dasharray:none;display:inline;enable-background:new"
       d="m 314.98599,451.69875 c 3.85615,2.98032 3.52329,3.86613 13.38452,9.84899"
       id="path3938"
       inkscape:connector-curvature="0"
       sodipodi:nodetypes="cc" />
    <path
       style="fill:none;stroke:#000000;stroke-width:6;stroke-linecap:butt;stroke-linejoin:miter;stroke-miterlimit:4;stroke-opacity:1;stroke-dasharray:none;display:inline;enable-background:new"
       d="m 389.85457,71.475661 c -6.61686,13.49011 -13.97349,9.21914 -18.27991,4.07125"
       id="path3964"
       inkscape:connector-curvature="0"
       sodipodi:nodetypes="cc" />
    <path
       style="fill:#000000;fill-opacity:0;stroke-width:6;stroke-miterlimit:4;stroke-dasharray:none"
       d="m 382.93036,278.29623 c 0,-0.12726 -1.03319,-5.38581 -2.29599,-11.68568 -5.90927,-29.48036 -12.98914,-53.97616 -22.40164,-77.50796 -2.36159,-5.90411 -2.5541,-6.69032 -2.25707,-9.21764 0.17861,-1.51964 0.46391,-2.76441 0.63401,-2.76616 1.25363,-0.0128 25.76953,-4.25328 30.61384,-5.29519 24.06924,-5.17678 40.52983,-11.57082 51.56866,-20.03163 3.23776,-2.4816 3.37097,-2.5328 4.21983,-1.62197 13.41104,14.3902 24.62625,31.42439 32.85299,49.89862 4.17013,9.36459 7.34898,18.08667 11.60957,31.85412 1.71935,5.55584 3.69624,11.53796 4.39308,13.29362 0.69683,1.75565 1.18818,3.25735 1.09189,3.33711 -0.0963,0.0798 -3.12978,1.30002 -6.74107,2.71169 -19.64014,7.67739 -39.62197,13.51848 -67.93276,19.85811 -11.59006,2.59536 -35.35534,7.41691 -35.35534,7.17296 z"
       id="path4216"
       inkscape:connector-curvature="0" />
    <path
       style="fill:none;stroke:#000000;stroke-width:6;stroke-linecap:butt;stroke-linejoin:miter;stroke-miterlimit:4;stroke-opacity:1;stroke-dasharray:none;display:inline;enable-background:new"
       d="m 408.64936,446.65348 c -17.69314,-5.78556 -30.15033,-27.87076 -41.07143,-29.28572 -57.74427,53.85173 -122.31977,42.94106 -103.21429,58.92858 19.10548,15.98751 67.74978,-15.54462 64.28572,-15.00001 -3.46406,0.54461 67.34211,35.18582 68.21428,31.42858"
       id="path3918"
       inkscape:connector-curvature="0"
       sodipodi:nodetypes="cczzc" />
  </g>
  <g
     inkscape:groupmode="layer"
     id="layer5"
     inkscape:label="aussen"
     style="display:inline"
     transform="translate(-181.3544,83.593802)">
    <path
       sodipodi:nodetypes="cccczcccczsszzzzzzzzzzzzzzzzsszzzzsssssscssssszzsccc"
       inkscape:connector-curvature="0"
       id="path4220"
       d="m 378.43184,283.20711 c 3.51058,19.97701 6.42845,41.0278 9.52426,63.96193 8.12734,33.7433 14.50093,91.26345 20.97407,100.74165 78.3077,51.85922 153.44493,80.87397 155.14776,84.95704 10.71626,6.02223 14.59319,7.76049 16.14286,15 1.54967,7.23951 -5.56732,10.19765 -10.97427,18.72988 -13.69127,5.53474 -12.81155,-15.49821 -39.59716,-14.87274 -6.92283,1.751 -19.31664,-17.48151 -30.99385,-15.41298 -32.89874,-18.07547 -34.56228,-25.46781 -67.14901,-31.72987 -12.61843,-2.38443 -39.59567,-13.72284 -42.15773,-9.41842 -2.56206,4.30442 10.19438,23.66018 24.97448,46.66956 1.04588,1.6282 -2.92358,2.01833 -1.80798,3.69263 1.72592,2.59027 3.53391,5.23194 5.4198,7.91337 1.88589,2.68144 19.96496,102.76464 39.14286,132.85714 19.1779,30.0925 18.5334,30.4489 15,62.8572 -3.5334,32.4082 -42.52569,87.48738 -57.14286,117.85708 -14.61717,30.3697 -19.06317,65.7911 -27.80565,84.872 -8.74248,19.0809 -7.7045,41.1374 -12.88452,41.4876 -5.18002,0.3502 -48.13757,-26.6283 -50.50762,-24.2436 -2.37005,2.3846 -17.51058,45.73722 -12.12184,52.52792 5.38874,6.7907 89.46007,36.1261 91.92389,52.0228 2.46381,15.8968 -18.23036,20.843 -57.07362,26.7691 -38.84326,5.926 -135.66909,-20.3965 -137.88583,-34.3452 -2.21674,-13.9488 6.05038,-14.9614 16.16245,-34.3452 10.11207,-19.3838 44.1773,-30.304 46.46701,-80.81222 2.28971,-50.5082 45.64005,-128.471 54.91373,-177.74618 9.27368,-49.2753 0.67031,-105.2441 -41.92643,-123.9239 -42.59674,-18.6798 -81.95646,-51.7157 -87.44311,-71.5787 -5.48665,-19.863 -13.26256,-37.90175 -9.54784,-54.75177 0.23189,-1.05186 -5.59132,-3.24331 -5.34933,-4.30262 4.27553,-18.71567 15.95287,-37.63372 14.56541,-65.24587 -1.38746,-27.61215 -18.04231,-125.68771 -0.93836,-178.37859 17.10395,-52.69088 48.66605,-82.35253 64.95434,-113.48371 16.28829,-31.13118 20.3394,-47.62836 16.78303,-55.95043 -3.55637,-8.322067 -0.44986,-21.364147 -8.08262,-24.773047 -23.41139,-10.45587 6.93771,-29.8456 -2.99161,-34.33472 -13.74625,-6.21479 12.61683,-22.60715 4.83522,-25.54395 -24.61551,-9.289934 19.10207,-18.3185554 12.10504,-22.9371154 -18.41193,-12.1532386 39.40728,-11.9065286 26.36401,-19.9847686 -9.90266,-6.13313 38.41215,3.89115 34.26351,-3.59663 -2.84186,-5.12921 11.28699,1.92052 15.53908,3.21773 4.43355,1.30604 28.41751,16.1304886 24.74123,6.18274 -4.27398,-11.56508 14.6573,20.8436286 13.81801,12.6790586 -0.56516,-5.49791 13.11921,27.6159354 16.65161,16.8829954 3.29584,-10.0141654 2.73351,22.06651 5.38632,18.59701 4.44745,-5.81661 -3.88919,14.25024 -4.98787,16.83523 -4.51552,10.62425 -2.45582,20.29685 -8.35621,22.21927 -5.90039,1.92243 7.70633,24.82969 4.84155,32.261057 -2.86478,7.43136 -9.97882,4.56346 -8.17846,9.65226 2.01804,5.70404 0.46222,15.63009 -5.35707,17.26036 -14.79007,1.73254 11.34145,25.38732 -34.87745,33.95395 -14.02269,2.61054 -11.10078,-2.15691 -11.85807,11.4034"
       style="fill:none;stroke:#000000;stroke-width:10;stroke-linecap:butt;stroke-linejoin:miter;stroke-miterlimit:4;stroke-opacity:1;stroke-dasharray:none;display:inline;filter:url(#filter3912);enable-background:new" />
    <path
       style="fill:none;stroke:#000000;stroke-width:10;stroke-linecap:butt;stroke-linejoin:miter;stroke-miterlimit:4;stroke-opacity:1;stroke-dasharray:none;display:inline;filter:url(#filter3912);enable-background:new"
       d="m 351.077,175.55683 c -0.12204,2.18532 -0.33963,4.84664 -0.7391,8.09153 13.95832,32.7947 21.93753,64.52558 28.09394,99.55874"
       id="path3910"
       inkscape:connector-curvature="0"
       sodipodi:nodetypes="ccc" />
  </g>
</svg>
