<?xml version="1.0" encoding="UTF-8" standalone="no"?>
<!-- Created with Inkscape (http://www.inkscape.org/) -->

<svg
   xmlns:dc="http://purl.org/dc/elements/1.1/"
   xmlns:cc="http://creativecommons.org/ns#"
   xmlns:rdf="http://www.w3.org/1999/02/22-rdf-syntax-ns#"
   xmlns:svg="http://www.w3.org/2000/svg"
   xmlns="http://www.w3.org/2000/svg"
   xmlns:xlink="http://www.w3.org/1999/xlink"
   xmlns:sodipodi="http://sodipodi.sourceforge.net/DTD/sodipodi-0.dtd"
   xmlns:inkscape="http://www.inkscape.org/namespaces/inkscape"
   width="744.09448819"
   height="1052.3622047"
   id="svg4007"
   version="1.1"
   inkscape:version="0.48.3.1 r9886"
   sodipodi:docname="roto-programme4r.svg"
   inkscape:export-filename="/home/stefan/Dropbox/BA-Projekt/prezentation/EXPORTS/roto-programme4r.png"
   inkscape:export-xdpi="300"
   inkscape:export-ydpi="300">
  <defs
     id="defs4009" />
  <sodipodi:namedview
     id="base"
     pagecolor="#ffffff"
     bordercolor="#666666"
     borderopacity="1.0"
     inkscape:pageopacity="0.0"
     inkscape:pageshadow="2"
     inkscape:zoom="0.49497475"
     inkscape:cx="266.19056"
     inkscape:cy="346.14393"
     inkscape:document-units="px"
     inkscape:current-layer="layer1"
     showgrid="false"
     inkscape:window-width="1920"
     inkscape:window-height="1024"
     inkscape:window-x="0"
     inkscape:window-y="27"
     inkscape:window-maximized="1" />
  <metadata
     id="metadata4012">
    <rdf:RDF>
      <cc:Work
         rdf:about="">
        <dc:format>image/svg+xml</dc:format>
        <dc:type
           rdf:resource="http://purl.org/dc/dcmitype/StillImage" />
        <dc:title></dc:title>
      </cc:Work>
    </rdf:RDF>
  </metadata>
  <g
     inkscape:groupmode="layer"
     id="layer2"
     inkscape:label="bild"
     style="display:none">
    <image
       style="display:inline"
       y="231.60379"
       x="-48.734272"
       id="image4023"
       xlink:href="file:///home/nicco/Dropbox/BA-Projekt/prezentation/rotobase/SDC11128.JPG"
       height="612.63647"
       width="816.84863" />
  </g>
  <g
     inkscape:groupmode="layer"
     id="layer4"
     inkscape:label="tastatur"
     style="display:none">
    <path
       style="fill:none;stroke:#000000;stroke-width:1px;stroke-linecap:butt;stroke-linejoin:miter;stroke-opacity:1"
       d="m 296.1875,539.21875 c -3.99572,-0.30813 -10.16202,3.52242 -23.34375,15.65625 -17.57564,16.17844 -76.48029,72.29934 -80.34375,73.5625 -3.86346,1.26316 -23.19507,17.15278 -10.90625,25.71875 12.28881,8.56597 34.12284,21.14063 44.125,21.96875 10.00217,0.82813 20.75866,4.21871 28.21875,-3.75 0.26702,-0.28523 0.61792,-0.68657 0.90625,-1 -3.11715,-4.09374 -4.73989,-7.9196 -8.125,-10.9375 -4.93177,-4.39678 -11.91443,-6.74586 -15.40625,-9.09375 -3.49181,-2.34789 -6.47302,-3.03661 -6.0625,-6.0625 0.41052,-3.02589 2.86663,-3.53191 5.3125,-3.53125 2.44587,6.6e-4 5.47747,0.77738 7.96875,2.375 2.49127,1.59763 6.19484,1.90486 9.21875,3.40625 3.02391,1.50139 3.63873,1.83606 8.0625,5.8125 -2.6473,-5.49374 -6.00673,-8.08609 -9.34375,-10.34375 -3.33702,-2.25766 -7.51908,-3.28063 -10.46875,-3.65625 -3.30715,-0.12828 -9.99483,3.17059 -8.46875,-3.15625 0.46331,-1.78719 3.70832,-2.58004 5.3125,-4.0625 -1.77495,-4.28086 6.1353,-6.61132 7.8125,-7.9375 -0.21599,-5.91715 2.81012,-5.27852 9.09375,-5.5625 3.43071,0.89086 10.46911,0.0811 12.125,-0.25 1.6559,-0.33112 9.74781,7.15539 14.65625,9.59375 4.90844,2.43836 2.45013,1.54684 6.1875,3.84375 1.35719,1.10299 1.17676,0.24152 2.71875,-1.1875 -1.42465,-3.81933 2.52869,-8.06722 6,-5.4375 0.62364,0.47244 0.90171,0.85927 1.125,1.1875 0.0516,-0.0638 0.1047,-0.12371 0.15625,-0.1875 5.1085,-6.32188 10.15524,-12.62231 14.8125,-18.5 -6.19608,-4.39414 -5.99166,-7.01864 -11.1875,-5.71875 -5.47897,1.37072 -6.66996,-2.63543 -7.9375,-3.15625 -1.26755,-0.52083 1.43248,3.11176 -8.84375,4.03125 -2.58888,3.99443 -6.63781,7.9713 -9.59375,7.84375 -8.00614,-2.45846 -2.83243,-6.43128 0.5,-7.96875 0.85838,-1.94884 2.92752,-4.98778 3.28125,-5.9375 0.35373,-0.94972 -2.54645,-2.59246 6.3125,-10.09375 8.85895,-7.50129 8.10625,-8.27799 11.125,-8.84375 3.01875,-0.56576 2.80004,0.70668 4.40625,0.625 1.60621,-0.0817 0.71633,-3.28102 5.3125,-1.75 4.59616,1.53103 11.29797,5.57294 16.40625,8.8125 1.79229,0.78564 3.67326,1.61178 5.59375,2.40625 0.85643,-1.12766 1.7147,-2.28077 2.4375,-3.25 4.08325,-5.47542 24.38709,-27.61869 18.9375,-29.8125 -5.44959,-2.19381 -40.48965,-10.68367 -44.625,-14.125 -1.03384,-0.86033 -2.13684,-1.42854 -3.46875,-1.53125 z"
       id="path4136"
       inkscape:connector-curvature="0" />
  </g>
  <g
     inkscape:label="roto"
     inkscape:groupmode="layer"
     id="layer1"
     style="display:inline">
    <path
       style="fill:none;stroke:#000000;stroke-width:6;stroke-linecap:butt;stroke-linejoin:miter;stroke-miterlimit:4;stroke-opacity:1;stroke-dasharray:none"
       d="m 96.722119,598.2986 c -7.59738,-6.1302 -8.70529,-12.27074 -13.63706,-16.66752 -4.93177,-4.39678 -11.91302,-6.74348 -15.40484,-9.09137 -3.49181,-2.34789 -6.47144,-3.03502 -6.06092,-6.06091 0.41052,-3.02589 2.85744,-3.5362 5.30331,-3.53554 2.44587,6.6e-4 5.46368,0.80149 7.95496,2.39911 2.49127,1.59763 6.19373,1.90788 9.21764,3.40927 3.02391,1.50139 3.65745,1.83194 8.08122,5.80838 -2.6473,-5.49374 -6.00689,-8.09641 -9.34391,-10.35407 -3.33702,-2.25766 -7.53066,-3.28618 -10.48033,-3.6618 -3.30715,-0.12828 -9.98612,3.17011 -8.46004,-3.15673 0.46331,-1.78719 3.69912,-2.55815 5.3033,-4.04061 -1.77495,-4.28086 6.1515,-6.62876 7.8287,-7.95494 -0.21599,-5.91715 2.80773,-5.27187 9.09136,-5.55585 3.43071,0.89086 10.46594,0.0786 12.12183,-0.25254 1.6559,-0.33112 9.738781,7.15809 14.647221,9.59645 4.90844,2.43836 2.44981,1.5543 6.18718,3.85121 1.35719,1.10299 1.1728,0.22946 2.71479,-1.19956 -1.42465,-3.81933 2.52647,-8.05928 5.99778,-5.42956 3.47131,2.62972 -1.78819,2.96956 12.37437,1.64149 14.16256,-1.32807 12.10575,-13.60354 4.79822,-18.43528 -7.30753,-4.83174 -6.76913,-7.81044 -12.24809,-6.43972 -5.47897,1.37072 -6.68741,-2.63591 -7.95495,-3.15673 -1.26755,-0.52083 1.43739,3.12112 -8.83884,4.04061 -2.58888,3.99443 -6.64051,7.95623 -9.59645,7.82868 -8.006141,-2.45846 -2.82735,-6.41748 0.50508,-7.95495 0.85838,-1.94884 2.92926,-4.98493 3.28299,-5.93465 0.35373,-0.94972 -2.5455,-2.60023 6.31345,-10.10152 8.85895,-7.50129 8.09293,-8.27308 11.11168,-8.83884 3.01875,-0.56576 2.81321,0.71302 4.41942,0.63134 1.60621,-0.0817 0.70713,-3.29878 5.3033,-1.76776 4.59616,1.53103 11.3067,5.59927 16.41498,8.83883 13.86337,6.07689 32.81219,12.74855 37.50191,14.89976 14.81103,0.75646 46.69769,-11.58707 68.81663,-24.11739 22.11895,-12.53032 30.16696,-21.97433 57.83123,-27.40039 27.66427,-5.42606 66.07829,-36.23758 76.14026,-34.97653 0.98687,-1.36806 4.75292,-4.76824 7.07106,-4.67196 -1.07243,-2.95524 6.30741,-10.10613 13.38452,-13.76333 -2.47582,-7.19915 -3.95279,-9.72333 -8.71257,-13.25825 -4.75977,-3.53492 -24.66578,2.60168 -31.94607,-1.38896 -7.28029,-3.99064 -8.01857,-8.02934 -8.96509,-12.75318 -0.94652,-4.72384 5.77752,-12.00073 2.14656,-15.15228 -4.99132,-7.34591 -0.38323,-11.47252 -2.77791,-15.27856 -2.39068,-1.16047 -6.18859,-1.63906 -5.68211,-7.32361 0.50649,-5.68455 -11.95464,6.25355 -19.44544,1.13643 -10.97144,-13.0959 10.31231,-34.20692 12.50064,-44.19418 0.6471,-7.71136 -6.63408,-13.37312 -2.52538,-30.1783 -10.96272,-12.81569 -5.69373,-37.89071 12.6269,-55.05331 25.58612,-23.66537 70.37024,-42.83949 101.01526,-37.88072 18.34069,2.77217 38.0655,8.6369 52.02285,26.26396 13.95735,17.62706 21.29871,40.78985 18.05648,61.9981 -2.50063,27.5706 -30.87999,52.02429 -35.86042,75.38264 -1.35802,11.5083 -1.62196,23.54662 5.93465,27.52666 21.83461,-0.98596 26.80934,4.90423 37.88072,17.5514 46.07372,31.97377 63.63961,141.54762 63.63961,141.54762 0,0 2.79,115.21119 -0.11133,229.3297 -77.65262,-0.0287 -326.74122,0.60581 -378.57143,0.71429 -4.98439,-24.51399 -5.48045,-11.20621 -3.57142,-21.42857 1.90903,-10.22236 2.08901,-18.24308 21.97697,-32.34835 19.88796,-14.10527 97.29694,-21.60374 117.83984,-30.68955 20.5429,-9.0858 38.93352,-1.41894 61.40255,-5.69941 2.20057,-14.19004 6.68424,-14.95477 0.0867,-33.27928 -6.59759,-18.32451 -13.60757,-42.83455 -19.16317,-44.41198 -5.5556,-1.57743 -7.60792,-4.5923 -22.85714,-10.71429 -9.98019,8.77825 -69.79344,10.75474 -94.84527,21.51894 -25.05184,10.76421 -19.30479,6.49169 -38.72616,7.76678 -38.86614,6.43227 -72.90344,1.22445 -107.22578,-4.91335 -10.02878,2.80307 -19.43688,3.57507 -43.836001,-13.21547 z"
       id="path4045"
       inkscape:connector-curvature="0"
       sodipodi:nodetypes="czzzzzzczccccczzcczzzzzccczzzzzcczzccczzzcczccccczccccccczzzczzczccc" />
    <path
       style="fill:none;stroke:#000000;stroke-width:6;stroke-linecap:butt;stroke-linejoin:miter;stroke-miterlimit:4;stroke-opacity:1;stroke-dasharray:none"
       d="m 142.49465,557.49389 c 6.96476,6.17879 8.895,17.54699 8.90197,20.60167 8.13226,-0.3976 32.56895,-0.50109 50.2399,-7.78241 17.67095,-7.28132 32.49386,-10.36784 51.7855,-10.5266 19.29164,-0.15876 37.42601,-12.66073 53.03301,-17.5514 15.607,-4.89067 32.59056,-7.20003 40.53237,-11.99557 7.94181,-4.79554 5.1802,-5.288 8.27248,-7.90002 3.09228,-2.61202 5.36108,-10.23433 8.07225,-8.41932 2.71118,1.815 3.85957,-6.53691 13.03744,-10.128 9.17788,-3.59109 19.28199,-14.66806 25.4836,-19.22508 6.20161,-4.55702 6.1903,-2.28732 16.91284,-13.40759 -9.49103,8.58801 -37.44871,20.71379 -47.76786,24.19643 -10.31915,3.48264 -17.02887,12.7866 -25,17.05356 -29.81241,14.04082 -60.03046,19.51008 -81.59072,22.62825 -21.56026,3.11817 -51.221,7.07785 -62.77335,11.11693 -11.23714,2.51566 -20.17961,7.01139 -28.81243,10.14857 -7.75403,1.86173 -29.34214,4.47234 -30.327,1.19058 z"
       id="path4084"
       inkscape:connector-curvature="0"
       sodipodi:nodetypes="cczzzzzzzzczczccc" />
    <path
       style="color:#000000;fill:#b3b3b3;fill-opacity:1;stroke:none;stroke-width:1.50000000000000000;marker:none;visibility:visible;display:inline;overflow:visible;enable-background:accumulate"
       d="m 228.38907,760.90872 c -2.79759,-4.74701 -3.43949,-15.58962 -1.31768,-22.25758 3.44223,-10.81748 16.98575,-24.04553 29.3587,-28.67484 5.70432,-2.13427 28.91648,-7.70746 51.58258,-12.38487 22.66609,-4.67741 46.21163,-10.26687 52.32344,-12.421 7.85052,-2.76697 18.52513,-4.19017 36.36616,-4.84857 13.8896,-0.51257 26.31376,-1.29257 27.60926,-1.73334 1.29549,-0.44075 3.37878,-5.73082 4.62955,-11.75569 2.09496,-10.09136 1.78644,-12.47672 -3.91632,-30.27955 -7.50854,-23.44014 -13.11604,-36.43719 -17.17338,-39.80449 -1.67202,-1.38767 -8.27385,-4.99076 -14.67073,-8.00687 -10.40752,-4.90714 -12.28501,-5.2152 -17.85262,-2.92922 -3.42208,1.40504 -22.084,5.29073 -41.47095,8.63488 -20.41407,3.52131 -42.19478,8.64125 -51.75274,12.16539 -15.23092,5.6158 -19.27791,6.18931 -52.47325,7.43597 -24.7025,0.92771 -41.98142,0.55432 -55.16238,-1.19202 -10.55609,-1.39857 -26.92057,-3.11466 -36.36549,-3.81352 -21.23299,-1.57113 -33.62409,-7.33838 -45.267357,-21.069 -4.548901,-5.36441 -12.816416,-12.4017 -18.372255,-15.63841 -12.674726,-7.38401 -8.491461,-7.73213 6.239272,-0.5192 7.381668,3.61445 11.706862,4.73246 13.062749,3.37658 3.092346,-3.09236 -5.473695,-12.69079 -14.897651,-16.69316 l -8.091513,-3.43648 5.863538,-5.43696 c 8.206565,-7.60956 19.101226,-7.39141 31.158637,0.62393 9.77594,6.4987 15.00829,7.55113 17.57728,3.53553 0.90093,-1.40825 5.89415,-2.58364 11.28764,-2.65706 18.39004,-0.2504 22.805,-12.69162 8.98361,-25.31549 -3.60959,-3.29686 -8.70527,-5.86756 -11.63075,-5.86756 -2.86363,0 -6.41121,-1.13642 -7.88351,-2.52538 -2.14152,-2.0203 -2.8621,-2.0203 -3.60288,0 -1.23821,3.37694 -8.67047,3.24587 -8.67047,-0.15291 0,-4.12205 8.68873,-11.34072 16.26591,-13.51382 5.54028,-1.58893 8.31367,-1.17047 14.86134,2.24237 4.42747,2.30772 16.84387,7.69934 27.59201,11.9814 l 19.54206,7.78553 12.8922,-2.71715 c 21.1518,-4.4579 40.17269,-12.86603 73.50134,-32.49103 10.15755,-5.98107 24.87042,-12.6044 33.33503,-15.00648 21.81904,-6.19177 24.5875,-7.38056 52.69215,-22.62635 13.97992,-7.5836 26.79371,-13.78838 28.47509,-13.78838 1.68135,0 8.22124,-5.00183 14.53306,-11.11517 l 11.47604,-11.11515 -3.12258,-6.03841 c -4.84863,-9.37622 -11.11312,-12.42118 -24.57386,-11.94459 -6.48983,0.22977 -13.84311,-0.23476 -16.34067,-1.03232 -5.37228,-1.71554 -7.53251,-8.45817 -4.93446,-15.40176 1.02319,-2.73455 1.13749,-6.79018 0.25406,-9.01251 -0.88346,-2.22234 -1.67019,-6.99531 -1.74828,-10.60661 -0.0782,-3.61129 -1.07365,-6.56599 -2.21231,-6.56599 -1.13866,0 -2.97062,-2.36797 -4.07098,-5.26215 -1.72021,-4.52451 -2.77523,-5.05097 -7.52614,-3.75563 -16.64107,4.53725 -18.89147,-2.14307 -7.55236,-22.41929 7.26142,-12.98462 7.3293,-13.32126 5.99739,-29.73898 -0.74094,-9.13313 -2.54742,-20.28966 -4.0144,-24.79229 -7.58912,-23.29354 11.21699,-48.41778 50.55153,-67.53494 22.68107,-11.02333 38.94788,-14.8622 57.57869,-13.58823 31.11726,2.1278 51.0307,14.91169 63.95148,41.05513 6.70966,13.57604 7.48837,16.81378 7.6213,31.68785 0.17456,19.52231 -2.05499,25.91282 -18.07583,51.81241 -14.70348,23.76994 -17.54126,31.00124 -17.67345,45.03603 -0.13673,14.51503 5.26433,21.74375 16.24619,21.74375 10.89518,0 19.35769,5.25742 35.26173,21.9067 23.22153,24.30966 40.95298,63.30593 51.93263,114.21386 4.08359,18.93384 4.3116,25.62167 4.46367,130.92832 0.0881,61.03643 -0.47025,111.60606 -1.24084,112.37696 -1.93704,1.93784 -370.27176,2.86787 -371.40923,0.93781 l 0,0 z M 175.86039,579.53066 c 6.87685,-0.6426 20.51391,-3.88638 30.30458,-7.20839 11.21523,-3.80538 25.64955,-6.82528 39.01442,-8.16248 16.9287,-1.69376 25.70173,-3.87023 43.43656,-10.77604 12.22284,-4.75948 28.58731,-10.28844 36.36549,-12.28661 19.05735,-4.89568 24.55782,-7.87298 36.08998,-19.53485 5.40432,-5.46509 13.37175,-12.17487 17.70541,-14.91058 11.74791,-7.41614 42.1691,-31.6716 42.1691,-33.62234 0,-3.87481 -6.32457,-3.67827 -12.01455,0.37335 -3.35337,2.3878 -15.25767,8.34786 -26.454,13.24455 -11.19633,4.89672 -23.86487,11.68143 -28.15234,15.07716 -17.46334,13.83123 -47.93257,23.0439 -106.59507,32.23007 -25.42617,3.98155 -46.30706,8.55001 -60.38542,13.21146 -13.61491,4.50801 -25.40718,7.12535 -32.10271,7.12535 -12.89429,0 -16.91218,3.38714 -12.42134,10.4714 1.63202,2.57448 3.58318,7.6348 4.33592,11.24514 1.29308,6.20198 1.7779,6.51258 8.78461,5.62772 4.0788,-0.51509 13.04251,-1.46231 19.91936,-2.10491 z"
       id="path2995"
       inkscape:connector-curvature="0" />
  </g>
  <g
     inkscape:groupmode="layer"
     id="layer3"
     inkscape:label="inner"
     style="display:none">
    <path
       style="fill:none;stroke:#000000;stroke-width:1px;stroke-linecap:butt;stroke-linejoin:miter;stroke-opacity:1"
       d="m 528.18351,438.25256 c 9.62341,1.10838 17.90607,-2.11453 21.59201,6.7554 -15.93442,1.69625 -15.34874,6.88107 -21.24477,-2.93575"
       id="path4113"
       inkscape:connector-curvature="0"
       sodipodi:nodetypes="ccc" />
    <path
       style="fill:none;stroke:#000000;stroke-width:1px;stroke-linecap:butt;stroke-linejoin:miter;stroke-opacity:1;display:inline"
       d="m 577.90179,495.48718 c -0.88194,3.76827 1.98887,10.33834 8.16964,14.86607 6.18078,4.52773 18.93438,22.69758 21.21039,29.54143 4.9381,-1.70437 6.11877,-3.70126 12.71818,-4.13964 5.65341,-4.14354 8.45945,-11.30717 14.46429,-23.39286 6.00484,-12.08569 14.127,-23.72913 37.5,-30.89286 23.373,-7.16373 -6.57655,-26.61281 -6.60715,-26.60714"
       id="path4086"
       inkscape:connector-curvature="0"
       sodipodi:nodetypes="czcczzc" />
    <path
       style="fill:none;stroke:#000000;stroke-width:1px;stroke-linecap:butt;stroke-linejoin:miter;stroke-opacity:1"
       d="m 557.23214,513.88004 c -0.75872,6.98411 6.09437,25.64151 32.05358,30.08928 -4.03294,1.93285 -5.16508,4.18801 -7.23215,6.33929"
       id="path4107"
       inkscape:connector-curvature="0"
       sodipodi:nodetypes="ccc" />
    <path
       style="fill:none;stroke:#000000;stroke-width:1px;stroke-linecap:butt;stroke-linejoin:miter;stroke-opacity:1"
       d="m 512.5,357.36218 c 10.72896,8.84865 16.04269,3.25668 18.21429,-10.71428 2.88776,-6.56009 5.87898,-13.0282 17.14285,-12.14286 5.13876,25.46621 7.42928,28.91874 17.5,26.42857 -0.1619,8.59575 0.76245,16.57499 12.85715,18.21429 0.88869,7.0966 7.5297,7.61911 12.85714,9.64285 -4.42317,10.17371 -4.72931,19.7407 15.35714,24.28572 1.24668,-5.68261 -0.59354,-14.19487 11.42857,-10 33.38623,-29.32823 48.25433,4.54676 33.57143,16.07143 -1.66263,4.52573 -9.99666,12.98999 1.07143,10 -3.22938,12.78965 1.22706,12.68276 7.85714,8.92857"
       id="path4109"
       inkscape:connector-curvature="0"
       sodipodi:nodetypes="ccccccccccc" />
    <path
       style="fill:none;stroke:#000000;stroke-width:1px;stroke-linecap:butt;stroke-linejoin:miter;stroke-opacity:1"
       d="m 528.3124,387.22269 c 4.32797,7.73866 7.53151,6.2698 14.14695,9.76976"
       id="path4111"
       inkscape:connector-curvature="0"
       sodipodi:nodetypes="cc" />
    <path
       style="fill:none;stroke:#000000;stroke-width:1px;stroke-linecap:butt;stroke-linejoin:miter;stroke-opacity:1;display:inline"
       d="m 521.36499,428.84552 c 13.95943,1.84326 12.73157,-3.50346 10.22779,-8.46002"
       id="path4115"
       inkscape:connector-curvature="0"
       sodipodi:nodetypes="cc" />
  </g>
</svg>
