<?xml version="1.0" encoding="UTF-8" standalone="no"?>
<!-- Created with Inkscape (http://www.inkscape.org/) -->

<svg
   xmlns:dc="http://purl.org/dc/elements/1.1/"
   xmlns:cc="http://creativecommons.org/ns#"
   xmlns:rdf="http://www.w3.org/1999/02/22-rdf-syntax-ns#"
   xmlns:svg="http://www.w3.org/2000/svg"
   xmlns="http://www.w3.org/2000/svg"
   xmlns:xlink="http://www.w3.org/1999/xlink"
   xmlns:sodipodi="http://sodipodi.sourceforge.net/DTD/sodipodi-0.dtd"
   xmlns:inkscape="http://www.inkscape.org/namespaces/inkscape"
   width="513.74854"
   height="522.99768"
   id="svg4649"
   version="1.1"
   inkscape:version="0.48.4 r9939"
   sodipodi:docname="rotoscope-programmieren.svg"
   inkscape:export-filename="/home/nicco/Dropbox/BA-Projekt/prezentation/rotoscope-programmieren.png"
   inkscape:export-xdpi="90"
   inkscape:export-ydpi="90">
  <defs
     id="defs4651" />
  <sodipodi:namedview
     id="base"
     pagecolor="#ffffff"
     bordercolor="#666666"
     borderopacity="1.0"
     inkscape:pageopacity="0.0"
     inkscape:pageshadow="2"
     inkscape:zoom="0.98994951"
     inkscape:cx="203.29357"
     inkscape:cy="252.9396"
     inkscape:document-units="px"
     inkscape:current-layer="layer4"
     showgrid="false"
     inkscape:window-width="1920"
     inkscape:window-height="1021"
     inkscape:window-x="0"
     inkscape:window-y="27"
     inkscape:window-maximized="1"
     fit-margin-top="0"
     fit-margin-left="0"
     fit-margin-right="0"
     fit-margin-bottom="0" />
  <metadata
     id="metadata4654">
    <rdf:RDF>
      <cc:Work
         rdf:about="">
        <dc:format>image/svg+xml</dc:format>
        <dc:type
           rdf:resource="http://purl.org/dc/dcmitype/StillImage" />
        <dc:title />
      </cc:Work>
    </rdf:RDF>
  </metadata>
  <g
     inkscape:label="Bild"
     inkscape:groupmode="layer"
     id="layer1"
     style="display:none"
     transform="translate(-110.53071,-161.2456)">
    <image
       y="108.20171"
       x="-21.125866"
       id="image4542"
       xlink:href="file:///home/nicco/Dropbox/BA-Projekt/prezentation/rotobase/SDC11137.JPG"
       height="573.58881"
       width="764.78503" />
  </g>
  <g
     inkscape:groupmode="layer"
     id="layer6"
     inkscape:label="tastatur"
     style="display:inline"
     transform="translate(-110.53071,-161.2456)">
    <path
       style="fill:#4f4f4f;fill-opacity:0.18039216;stroke:#000000;stroke-width:5;stroke-linecap:butt;stroke-linejoin:miter;stroke-miterlimit:4;stroke-opacity:1;stroke-dasharray:none"
       d="m 207.5,500.21933 c 25.30582,18.28039 41.83317,30.07668 51.23004,37.87442 17.34753,14.39537 15.51806,11.32201 36.3242,-2.42976 10.14597,-6.70594 24.11998,-16.91528 45.66004,-31.15895 21.54006,-14.24367 73.21429,-63.92857 73.21429,-63.92857 l -37.14286,-33.57143 -124.93872,62.37746 -1.32397,7.90046 c 0,0 -21.11543,9.54988 -43.02302,22.93637 z"
       id="path6060"
       inkscape:connector-curvature="0"
       sodipodi:nodetypes="csszccccc" />
    <path
       style="fill:none;stroke:#000000;stroke-width:5;stroke-linecap:butt;stroke-linejoin:miter;stroke-miterlimit:4;stroke-opacity:1;stroke-dasharray:none"
       d="M 301.42857,444.1479 C 312.17805,419.7825 335.2106,405.04046 286.78571,428.07647 238.36082,451.11248 242.22124,437.19979 205,456.6479 167.77876,476.09601 109.36219,444.72097 113.21429,443.79076"
       id="path6062"
       inkscape:connector-curvature="0"
       sodipodi:nodetypes="czzc" />
  </g>
  <g
     inkscape:groupmode="layer"
     id="layer4"
     inkscape:label="farbe"
     style="opacity:0.98999999;display:inline"
     transform="translate(-110.53071,-161.2456)">
    <path
       style="color:#000000;fill:#e3cc88;fill-opacity:1;stroke:none;stroke-width:5;marker:none;visibility:visible;display:inline;overflow:visible;enable-background:accumulate"
       d="m 501.88516,416.74307 c -6.78831,-1.50243 -12.91259,-5.38469 -20.11247,-12.74958 -5.26141,-5.38199 -12.0755,-14.94643 -15.5027,-21.76004 -2.65275,-5.27392 -3.56271,-5.59509 -14.27415,-5.03794 -10.21646,0.53141 -15.47299,3.04847 -27.15787,13.00441 -6.62339,5.64336 -15.16125,9.79844 -23.63692,11.50324 l -2.46983,0.49679 2.11269,-2.62212 c 1.16197,-1.44217 3.42343,-4.13416 5.02546,-5.9822 5.57302,-6.42885 5.23092,-4.59353 4.80152,-25.75913 -0.35234,-17.3673 -0.53831,-19.55987 -2.12897,-25.10096 -0.9586,-3.33929 -1.91701,-8.16071 -2.12981,-10.71429 -0.35508,-4.26104 -0.10648,-5.40647 3.02302,-13.92857 2.02457,-5.5132 3.5399,-10.95288 3.72985,-13.38931 0.29364,-3.76622 0.0968,-4.47092 -2.39377,-8.57143 -3.6676,-6.03832 -3.65184,-9.43046 0.0971,-20.8964 2.37657,-7.26857 2.80255,-9.50274 2.80255,-14.69846 0,-5.64935 -0.16024,-6.33712 -2.05537,-8.82176 -1.13045,-1.4821 -4.86562,-4.91452 -8.30037,-7.62759 -5.78898,-4.57265 -14.58785,-14.73641 -18.79399,-21.70933 -6.1036,-10.11852 -5.58547,-17.969 1.87607,-28.42541 8.21325,-11.50984 25.99476,-23.55093 39.13622,-26.50183 9.90387,-2.22391 47.85709,-3.36196 59.98816,-1.79879 11.68065,1.50513 20.91275,5.11603 28.69803,11.22449 4.92371,3.86322 13.08242,13.53706 19.70022,23.35868 5.70408,8.46555 7.47705,13.38036 11.15333,30.91769 3.68555,17.5816 4.58355,20.05315 13.94035,38.36802 5.88746,11.52406 8.73177,17.92125 9.5275,21.42858 3.5655,15.71551 5.57672,37.49377 4.21915,45.68645 -0.94242,5.68735 -2.24168,7.36917 -7.68339,9.9457 -4.02376,1.90515 -5.07136,3.54442 -4.28005,6.69726 0.84249,3.35679 3.22729,5.83376 13.84099,14.376 11.37855,9.15782 20.1952,18.05185 22.88626,23.08713 l 1.71024,3.20006 -1.92614,4.21799 c -2.29244,5.0201 -6.13385,9.24596 -10.06578,11.07315 -8.88012,4.12666 -17.99858,-1.46114 -26.77002,-16.4047 -4.69314,-7.99552 -5.73707,-8.79185 -10.18974,-7.77294 -4.07147,0.93169 -6.75814,-0.0258 -10.9891,-3.91633 -1.87287,-1.72218 -3.36039,-2.55367 -4.0767,-2.2788 -0.62032,0.23803 -2.39624,3.08951 -3.94648,6.3366 -1.55024,3.2471 -3.35216,6.10855 -4.00426,6.35878 -0.65209,0.25023 -2.08723,-0.0113 -3.18919,-0.58113 l -2.00357,-1.03608 -0.39573,6.934 c -0.47707,8.35908 -1.41147,11.42212 -4.63222,15.18485 -4.13419,4.82987 -8.46263,6.16758 -15.16013,4.68525 l 0,0 z"
       id="path6000"
       inkscape:connector-curvature="0" />
    <path
       style="color:#000000;fill:#b1b1b1;fill-opacity:1;stroke:none;stroke-width:5;marker:none;visibility:visible;display:inline;overflow:visible;enable-background:accumulate"
       d="m 385.8638,678.11608 c 0,-0.43775 3.22503,-1.25989 6.78479,-3.6003 7.39209,-4.86002 13.84134,-12.06549 16.8139,-18.78545 1.29889,-2.93636 4.68695,-20.49563 9.3033,-48.21611 l 7.26045,-43.59791 3.29604,-2.13333 c 5.51449,-4.8434 -0.38747,-2.5562 -2.50899,-1.16757 -7.58986,4.99954 -20.12977,7.71411 -32.29627,5.4834 -5.16864,-0.94766 -27.11067,-10.25795 -36.01474,-14.60849 -1.60891,-0.78612 -5.92731,-1.93804 -9.59645,-2.55982 -9.13778,-1.54852 -16.46834,-4.71934 -15.81604,-6.8412 0.27604,-0.8979 2.1009,-8.57249 4.05524,-17.05465 4.83553,-20.98689 7.3931,-29.8185 16.07122,-55.49572 9.63423,-28.50623 17.3501,-48.08633 20.3578,-51.66078 1.3183,-1.56671 5.26132,-4.36515 8.76227,-6.21873 3.50095,-1.85359 7.95636,-4.35724 9.9009,-5.56367 1.94454,-1.20642 5.81332,-2.45875 8.59727,-2.78295 7.84802,-0.91393 16.75939,-3.88588 23.04498,-9.91796 14.90844,-14.30716 22.87169,-14.91649 33.72575,-14.49215 4.39033,0.17164 6.03623,0.52826 5.9049,2.63507 1.38459,4.3625 12.75075,19.88416 18.78214,25.64896 11.34342,10.84205 23.91657,14.72887 32.23718,9.9657 4.87042,-2.7881 9.02761,-11.21435 9.02761,-18.29816 0,-5.01672 0.16332,-5.3747 2.45206,-5.3747 2.83467,0 5.99003,-3.55814 7.67029,-8.64941 0.63031,-1.90983 1.93658,-4.60884 2.20835,-4.60884 0.27178,0 1.56458,2.38648 3.56739,3.91434 2.82885,2.15801 4.80113,2.79534 8.83813,2.85598 2.85817,0.0429 5.72873,-0.64226 6.30189,-0.28804 0.57315,0.35423 2.68535,4.57199 4.77093,8.13817 4.83322,8.26445 9.98995,13.58562 15.57003,16.06657 8.34788,3.71152 17.21145,0.19383 22.48236,-8.92259 2.43731,-4.21548 2.69489,-4.39253 3.27042,-2.24788 0.34362,1.2804 0.35791,8.46467 0.0317,15.96506 -0.44208,10.16683 -0.0326,19.42076 1.60903,36.36549 1.43322,14.7931 2.35493,32.77984 2.63998,51.51778 0.50132,32.95462 1.18403,38.88083 6.16778,53.53808 3.26247,9.595 3.60873,11.66638 3.63044,21.71828 0.0237,10.97912 -0.0332,11.25026 -4.77951,22.72843 1.9281,0.60165 1.27286,0.39587 2.96717,0.80774 0.55558,-0.0469 2.53839,2.82053 4.40623,6.37203 3.35029,6.37021 3.38786,6.58726 2.78676,16.094 -0.62127,9.82572 -4.13717,30.77954 -7.83246,46.6793 l -2.05423,8.83883 -112.04278,0 c -61.62348,0 -112.33291,-0.11262 -112.33291,-0.55037 z"
       id="path6033"
       inkscape:connector-curvature="0"
       sodipodi:nodetypes="cssscccsssssssssssscsssssssccssscsssssccssscscc" />
    <path
       style="color:#000000;fill:#4f4f4f;fill-opacity:0.17982459;stroke:none;stroke-width:5;marker:none;visibility:visible;display:inline;overflow:visible;enable-background:accumulate"
       d="m 375.64978,274.91526 c -0.89767,-0.27873 -2.14286,-1.21944 -2.14286,-1.61887 0,-0.14307 -0.49394,-1.56356 -1.09763,-3.15664 -1.17916,-3.11167 -1.57547,-4.40592 -1.57882,-5.15613 l -0.002,-0.47389 1.83035,-0.10644 c 1.0067,-0.0586 4.27405,-0.1908 7.26079,-0.29389 4.41687,-0.15245 5.46037,-0.14412 5.59087,0.0446 0.0883,0.12763 0.11613,0.87492 0.062,1.66063 -0.31891,4.62587 -2.80653,8.16547 -6.41365,9.12591 -1.15363,0.30716 -2.46872,0.29768 -3.50889,-0.0253 z"
       id="path6037"
       inkscape:connector-curvature="0" />
    <path
       style="color:#000000;fill:#4f4f4f;fill-opacity:0.17982459;stroke:none;stroke-width:5;marker:none;visibility:visible;display:inline;overflow:visible;enable-background:accumulate"
       d="m 370.56049,262.15394 c -0.26853,-2.31368 0.32372,-4.60725 1.50793,-5.83966 1.06242,-1.10566 2.35024,-1.54186 4.5635,-1.54571 0.98214,-0.002 2.24314,0.0971 2.80222,0.21951 0.94527,0.20702 1.12313,0.33466 2.53794,1.82138 1.20113,1.26219 1.69118,1.94605 2.3278,3.24841 0.4435,0.9073 0.85576,1.86558 0.91611,2.12951 0.0997,0.43596 0.0551,0.48818 -0.48717,0.57057 -0.53211,0.0808 -11.75416,0.47413 -13.39187,0.46933 l -0.65211,-0.002 -0.12435,-1.07142 z"
       id="path6039"
       inkscape:connector-curvature="0" />
  </g>
  <g
     inkscape:groupmode="layer"
     id="layer5"
     inkscape:label="haut"
     style="display:inline"
     transform="translate(-110.53071,-161.2456)">
    <path
       style="color:#000000;fill:#deaa87;fill-opacity:1;stroke:none;stroke-width:5;marker:none;visibility:visible;display:inline;overflow:visible;enable-background:accumulate"
       d="m 379.16442,675.04147 c -13.49042,-4.45323 -26.24367,-16.10712 -41.5469,-37.96545 -1.78777,-2.55358 -9.5675,-14.39959 -17.28828,-26.32447 -7.72078,-11.92489 -17.68425,-26.38918 -22.14105,-32.14286 -4.4568,-5.75369 -9.68183,-13.03267 -11.61118,-16.17553 -3.27578,-5.33615 -4.0507,-6.0818 -11.71025,-11.26796 -9.35109,-6.33148 -27.41842,-21.55688 -29.92971,-25.22187 -1.72498,-2.51744 -3.0538,-7.67572 -2.40973,-9.35416 0.77083,-2.00874 3.08992,-0.84791 5.89686,2.95171 1.58194,2.14139 3.98801,4.42099 5.34682,5.06579 1.35882,0.6448 2.84614,1.6249 3.30517,2.178 0.97457,1.17428 3.23141,1.33103 3.88717,0.26999 0.68984,-1.11618 -2.85329,-6.68012 -7.56421,-11.87843 -6.36931,-7.02829 -7.08161,-11.60524 -2.479,-15.92916 l 1.64084,-1.54149 0.45865,2.36379 c 0.52813,2.72192 9.88165,13.47261 10.64586,12.23608 0.25745,-0.41656 -1.61425,-3.12365 -4.15934,-6.01575 -3.63169,-4.12686 -4.62743,-5.74961 -4.62743,-7.54132 0,-2.90265 2.77462,-5.24379 6.21471,-5.24379 3.74143,0 5.24801,1.07924 4.77915,3.42355 -0.34058,1.7029 0.0373,2.27613 2.81601,4.27165 5.07425,3.64404 6.50717,2.69582 2.6187,-1.7329 -2.3118,-2.633 -2.50971,-3.47583 -1.46276,-6.22951 1.70977,-4.49705 6.78269,-3.51833 12.45797,2.40351 1.84166,1.92168 5.44546,4.99033 8.00845,6.81924 4.23605,3.02279 4.76961,3.22607 5.86518,2.23459 3.01121,-2.72511 4.76154,-2.70958 10.24512,0.0909 3.18333,1.62573 6.01612,3.69895 7.33979,5.37175 1.96692,2.4857 2.14966,3.1736 2.08725,7.85714 -0.0376,2.82312 -0.60758,9.23291 -1.26659,14.24397 -0.65901,5.01106 -0.94213,9.5471 -0.62916,10.08009 0.31297,0.53299 2.52364,2.58704 4.91259,4.56455 4.80493,3.97738 9.16278,9.25054 16.06895,19.44404 7.64603,11.2855 22.0732,25.28396 24.02358,23.30968 0.31016,-0.31396 0.52515,-8.41593 0.47777,-18.00439 -0.0474,-9.58846 0.0398,-17.43357 0.1937,-17.43357 0.15392,0 5.49626,2.20322 11.87187,4.89605 6.3756,2.69282 13.19915,5.40968 15.16343,6.03745 11.41548,3.64832 27.04363,3.67905 36.35692,0.0715 1.15781,-0.44848 1.2955,-0.27256 0.93836,1.19899 -0.71471,2.94496 -6.67482,37.77405 -10.50146,61.36744 -4.17772,25.75799 -5.30962,29.1258 -12.39256,36.8725 -4.57883,5.00792 -12.67798,10.80035 -15.82983,11.32131 -1.17857,0.19481 -3.91071,-0.22939 -6.07143,-0.94264 z"
       id="path6002"
       inkscape:connector-curvature="0" />
    <path
       style="color:#000000;fill:#deaa87;fill-opacity:1;stroke:none;stroke-width:5;marker:none;visibility:visible;display:inline;overflow:visible;enable-background:accumulate"
       d="m 401.30728,345.22495 c -6.10752,-1.62112 -11.38362,-4.47134 -12.92272,-6.98103 -1.15336,-1.88069 -1.30169,-3.04457 -0.92614,-7.26721 0.42549,-4.78413 0.32082,-5.27877 -2.15905,-10.20312 -2.29406,-4.55541 -2.55164,-5.58659 -2.15062,-8.60964 0.4217,-3.17896 0.30377,-3.55417 -1.5858,-5.04506 -1.99172,-1.57149 -2.04138,-1.77728 -2.04138,-8.45923 l 0,-6.84855 -3.21429,-2.30129 c -4.37713,-3.13384 -7.85714,-6.42405 -7.85714,-7.42861 0,-0.45733 1.20536,-2.01166 2.67857,-3.45406 2.35034,-2.3012 3.04564,-2.59589 5.67413,-2.40488 1.70614,0.12398 3.90374,-0.25196 5.10542,-0.87337 2.31149,-1.19532 5.11331,-6.18537 5.11331,-9.10681 0,-1.75566 0.18158,-1.82561 5.89285,-2.27021 9.83742,-0.76579 19.10715,-0.58037 19.10715,0.38221 0,0.46723 -1.3199,5.17922 -2.9331,10.47109 -3.67082,12.04158 -3.65445,16.20858 0.0869,22.11883 3.32103,5.24625 3.15806,8.14174 -1.09292,19.41772 -2.75029,7.29531 -3.36612,9.77787 -3.36654,13.57143 -4.6e-4,4.12028 1.3393,11.67943 2.6902,15.17857 0.59602,1.54384 -0.62373,1.56648 -6.09883,0.11322 z"
       id="path6004"
       inkscape:connector-curvature="0" />
    <path
       style="color:#000000;fill:#deaa87;fill-opacity:1;stroke:none;stroke-width:5;marker:none;visibility:visible;display:inline;overflow:visible;enable-background:accumulate"
       d="m 386.01725,260.3034 c -0.24469,-0.97493 -1.40454,-2.86558 -2.57743,-4.20143 -1.1729,-1.33586 -2.13254,-2.80414 -2.13254,-3.26286 0,-0.45872 -0.50893,-1.81819 -1.13095,-3.02105 -1.75665,-3.39699 -1.3446,-7.47541 1.44868,-14.33885 1.39668,-3.43181 2.53941,-6.72645 2.53941,-7.32143 0,-2.02987 1.07146,-1.07214 6.07143,5.42697 3.13238,4.07156 7.13443,8.18068 10.71429,11.00095 7.15554,5.63725 9.27616,7.86533 10.67639,11.21738 1.98086,4.74202 1.66778,5.29677 -3.28117,5.81404 -2.41477,0.2524 -8.32636,0.4589 -13.13685,0.4589 -8.71651,0 -8.74788,-0.006 -9.19126,-1.77262 z"
       id="path6006"
       inkscape:connector-curvature="0" />
  </g>
  <g
     inkscape:groupmode="layer"
     id="layer2"
     inkscape:label="aussen"
     style="display:inline"
     transform="translate(-110.53071,-161.2456)">
    <path
       style="fill:none;stroke:#000000;stroke-width:5;stroke-linecap:butt;stroke-linejoin:miter;stroke-miterlimit:4;stroke-opacity:1;stroke-dasharray:none"
       d="m 305.69741,589.83859 c 12.20808,17.22377 39.3758,66.71592 58.23116,77.88074 5.65424,5.42796 16.37424,9.39118 21.16071,9.55357 -0.0577,1.71074 -0.0639,2.40945 -0.26785,4.375 33.01036,0.53698 169.24896,-1.6509 226.0804,-0.42214 2.14281,-5.76677 10.16113,-43.81367 10.86221,-59.7258 0.70108,-15.91213 -12.14706,-20.11294 -8.25389,-25.90926 3.89317,-5.79632 3.96245,-27.62509 -1.38524,-38.79859 -5.3477,-11.1735 -7.13262,-30.16835 -5.73967,-47.8497 1.39295,-17.68135 -4.87242,-74.59364 -5.31382,-80.86594 -0.4414,-6.2723 -0.26868,3.38701 1.17078,-22.02338 1.43946,-25.41039 -33.75983,-40.59664 -39.65554,-50.62455 -5.89571,-10.02791 8.69938,-5.21371 10.75761,-16.14322 2.05823,-10.92951 -0.41048,-34.31276 -3.70142,-47.99456 -3.29094,-13.6818 -11.81975,-23.71202 -18.21428,-38.92857 -6.39453,-15.21655 -5.35185,-37.85771 -16.35986,-52.5 -11.00801,-14.64229 -17.81539,-25.96178 -35.3856,-32.14286 -17.57021,-6.18108 -47.37443,-3.51786 -68.96883,-2.14286 -21.5944,1.375 -67.23233,34.20138 -46.07143,58.21429 -2.31811,10.33598 -6.80136,15.60814 -6.78571,21.07143 0.0156,5.46329 3.37006,7.07074 2.85715,9.82143 -0.93806,-0.32185 -6.25603,-1.51344 -8.86721,0.9144 -2.61117,2.42784 -1.89958,6.18372 -1.62617,9.47653 0.27341,3.29281 3.2166,7.72411 2.92585,9.94724 -0.29076,2.22314 -5.83054,3.25573 -5.32497,7.60416 0.50557,4.34843 6.05008,5.49971 9.97526,8.83883 3.92518,3.33912 -0.64475,10.17361 0.25254,13.13199 0.89729,2.95838 5.94569,4.02034 4.47172,6.83647 -1.47396,2.81613 -0.43856,5.61984 1.968,10.08358 2.40656,4.46374 3.07048,3.24844 1.76777,12.62691 -1.30271,9.37847 17.23416,12.79132 21.60006,13.21846 4.3659,0.42714 -0.27725,20.05718 2.32143,31.42857 2.59868,11.3714 -5.54065,11.4319 -8.03572,17.85714 -2.49507,6.42524 -22.15915,13.97551 -28.21428,18.66072 -6.05513,4.68522 -24.61524,60.92813 -30.98178,82.22728 -6.36654,21.29915 -7.90391,34.68081 -11.2443,46.51034 9.54871,7.36559 21.43678,4.43835 26.64912,8.79551 0.72202,14.97541 1.26442,35.74481 -0.25254,36.36549 -5.2101,-2.16977 -18.18355,-16.05653 -22.98097,-23.99112 -4.79742,-7.93459 -11.34173,-16.35768 -16.92005,-20.20305 -5.57832,-3.84537 -3.40343,-2.99763 -3.4724,-7.00793 -0.069,-4.0103 4.14684,-20.85403 1.19429,-26.57635 -2.95255,-5.72232 -7.08871,-6.64195 -11.72351,-9.0666 -4.6348,-2.42465 -8.71099,1.11731 -9.10715,2.23214 -2.95391,-1.49852 -10.81426,-7.25859 -13.57142,-10.98215 -2.75716,-3.72356 -12.58077,-8.43129 -13.125,2.23215 -0.004,2.72435 2.16481,3.98415 4.46428,6.96428 -4.03982,-1.8413 -2.38222,-1.29159 -6.49619,-4.74204 1.82084,-3.45044 -0.44341,-5.69977 -4.99349,-5.68551 -4.55008,0.0143 -5.82017,2.61152 -7.52817,4.44541 -1.88198,-0.77574 -6.36333,3.42794 -6.96429,7.67857 -0.52486,7.7139 8.31188,12.57881 10.17857,16.16072 1.84321,3.6921 4.26962,5.58215 2.85714,6.25 -1.47629,0.71571 -4.75294,-3.87163 -7.23214,-3.75 -1.79751,-1.41217 -2.23467,-2.81474 -3.66071,-4.19643 -2.66774,-7.42131 -10.02763,-4.5878 -6.90333,1.20477 -0.34416,1.88809 0.27081,4.18269 1.99261,6.4738 1.9089,3.10546 7.21615,6.77136 10.80357,10 3.58742,3.22864 6.05827,5.70629 10.71429,9.375 4.65602,3.66871 14.12983,8.58822 17.41071,12.32143 5.82808,11.58966 16.3909,22.70038 22.6617,31.49426 z"
       id="path5434"
       inkscape:connector-curvature="0"
       sodipodi:nodetypes="ccccczzzzzzzzzzzzzczczzzzzzzzzzzzzzccczzzzzczccczcccccccczzcc" />
  </g>
  <g
     inkscape:groupmode="layer"
     id="layer3"
     inkscape:label="innen"
     style="display:inline"
     transform="translate(-110.53071,-161.2456)">
    <path
       style="fill:none;stroke:#000000;stroke-width:3;stroke-linecap:butt;stroke-linejoin:miter;stroke-miterlimit:4;stroke-opacity:1;stroke-dasharray:none"
       d="m 358.60415,552.84175 c 1.06947,-0.17824 23.42253,10.48727 31.31473,12.50064 11.51348,2.70381 23.71461,3.18767 34.34519,-1.6415 3.58241,-1.66034 7.3236,-4.92449 7.3236,-4.92449"
       id="path5437"
       inkscape:connector-curvature="0"
       sodipodi:nodetypes="cccc" />
    <path
       style="fill:none;stroke:#000000;stroke-width:3;stroke-linecap:butt;stroke-linejoin:miter;stroke-miterlimit:4;stroke-opacity:1;stroke-dasharray:none"
       d="m 425.02168,564.96358 c -0.41898,0.0739 -10.61689,61.44517 -13.78499,81.97772 -3.16809,20.53256 -26.01942,30.97471 -26.11603,30.40175"
       id="path5439"
       inkscape:connector-curvature="0"
       sodipodi:nodetypes="czc" />
    <path
       style="fill:none;stroke:#000000;stroke-width:3;stroke-linecap:butt;stroke-linejoin:miter;stroke-miterlimit:4;stroke-opacity:1;stroke-dasharray:none"
       d="m 612.67857,597.71933 c -3.86537,9.89565 -7.70739,19.88472 -12.5,26.07142"
       id="path5441"
       inkscape:connector-curvature="0"
       sodipodi:nodetypes="cc" />
    <path
       style="fill:none;stroke:#000000;stroke-width:3;stroke-linecap:butt;stroke-linejoin:miter;stroke-miterlimit:4;stroke-opacity:1;stroke-dasharray:none"
       d="m 384.1105,224.0371 c 0,0 6.34683,8.72177 11.41498,14.62927 5.06815,5.9075 16.1448,10.18191 17.81817,18.94036 1.67337,8.75845 -6.95121,23.173 -6.50472,30.8276 0.44649,7.6546 5.48208,7.81913 5.80838,14.89975 0.3263,7.08062 -6.92289,17.93178 -7.32361,25.50634 -0.40071,7.57457 4.17586,19.93783 4.17586,19.93783"
       id="path5443"
       inkscape:connector-curvature="0"
       sodipodi:nodetypes="czzzzzc" />
    <path
       style="fill:none;stroke:#000000;stroke-width:3;stroke-linecap:butt;stroke-linejoin:miter;stroke-miterlimit:4;stroke-opacity:1;stroke-dasharray:none;display:inline"
       d="m 396.78571,402.00504 c -0.88353,2.57377 18.78873,-0.76853 30.98215,-12.85714 12.19341,-12.0886 24.25065,-12.70334 35.44642,-10.71428 23.60674,48.91074 62.32174,52.55779 59.64286,12.85714 8.82004,6.52176 9.09865,-11.51264 13.21429,-11.78572 8.22004,9.16702 12.96479,7.02651 17.5,5.71429 5.69103,3.85044 5.29851,10.23008 14.82142,20.26786 9.52291,10.03777 25.48384,8.65585 31.78571,-11.875"
       id="path5445"
       inkscape:connector-curvature="0"
       sodipodi:nodetypes="czcccczc" />
    <path
       style="fill:none;stroke:#000000;stroke-width:3;stroke-linecap:butt;stroke-linejoin:miter;stroke-miterlimit:4;stroke-opacity:1;stroke-dasharray:none"
       d="m 254.01786,496.6479 c -1.06464,6.41938 1.5877,5.73604 9.33035,15.35714"
       id="path5465"
       inkscape:connector-curvature="0"
       sodipodi:nodetypes="cc" />
    <path
       style="fill:none;stroke:#000000;stroke-width:3;stroke-linecap:butt;stroke-linejoin:miter;stroke-miterlimit:4;stroke-opacity:1;stroke-dasharray:none;display:inline"
       d="m 370.17857,263.88004 43.21429,-1.51785"
       id="path5977"
       inkscape:connector-curvature="0" />
    <path
       style="fill:none;stroke:#000000;stroke-width:3;stroke-linecap:butt;stroke-linejoin:miter;stroke-miterlimit:4;stroke-opacity:1;stroke-dasharray:none;display:inline"
       d="m 373.30357,274.14789 c 2.38614,2.87907 10.61363,2.59994 12.58929,-6.16071 1.97565,-8.76066 -5.93248,-13.6706 -4.82143,-13.03572"
       id="path5467"
       inkscape:connector-curvature="0"
       sodipodi:nodetypes="czc" />
  </g>
</svg>
