<?xml version="1.0" encoding="UTF-8" standalone="no"?>
<!-- Created with Inkscape (http://www.inkscape.org/) -->

<svg
   xmlns:dc="http://purl.org/dc/elements/1.1/"
   xmlns:cc="http://creativecommons.org/ns#"
   xmlns:rdf="http://www.w3.org/1999/02/22-rdf-syntax-ns#"
   xmlns:svg="http://www.w3.org/2000/svg"
   xmlns="http://www.w3.org/2000/svg"
   xmlns:xlink="http://www.w3.org/1999/xlink"
   xmlns:sodipodi="http://sodipodi.sourceforge.net/DTD/sodipodi-0.dtd"
   xmlns:inkscape="http://www.inkscape.org/namespaces/inkscape"
   width="385.39725"
   height="522.99768"
   id="svg4649"
   version="1.1"
   inkscape:version="0.48.4 r9939"
   sodipodi:docname="rotoscope-programmieren.svg"
   inkscape:export-filename="/home/nicco/Dropbox/BA-Projekt/prezentation/rotoscope-programmieren.png"
   inkscape:export-xdpi="90"
   inkscape:export-ydpi="90">
  <defs
     id="defs4651" />
  <sodipodi:namedview
     id="base"
     pagecolor="#ffffff"
     bordercolor="#666666"
     borderopacity="1.0"
     inkscape:pageopacity="0.0"
     inkscape:pageshadow="2"
     inkscape:zoom="0.98994951"
     inkscape:cx="182.57278"
     inkscape:cy="352.68864"
     inkscape:document-units="px"
     inkscape:current-layer="layer2"
     showgrid="false"
     inkscape:window-width="1920"
     inkscape:window-height="1021"
     inkscape:window-x="0"
     inkscape:window-y="27"
     inkscape:window-maximized="1"
     fit-margin-top="0"
     fit-margin-left="0"
     fit-margin-right="0"
     fit-margin-bottom="0" />
  <metadata
     id="metadata4654">
    <rdf:RDF>
      <cc:Work
         rdf:about="">
        <dc:format>image/svg+xml</dc:format>
        <dc:type
           rdf:resource="http://purl.org/dc/dcmitype/StillImage" />
        <dc:title />
      </cc:Work>
    </rdf:RDF>
  </metadata>
  <g
     inkscape:label="Bild"
     inkscape:groupmode="layer"
     id="layer1"
     style="display:none"
     transform="translate(-238.88199,-161.2456)">
    <image
       y="108.20171"
       x="-21.125866"
       id="image4542"
       xlink:href="file:///home/nicco/Dropbox/BA-Projekt/prezentation/rotobase/SDC11137.JPG"
       height="573.58881"
       width="764.78503" />
  </g>
  <g
     inkscape:groupmode="layer"
     id="layer6"
     inkscape:label="tastatur"
     style="display:none"
     transform="translate(-238.88199,-161.2456)">
    <path
       style="fill:#4f4f4f;fill-opacity:0.18039216;stroke:#000000;stroke-width:5;stroke-linecap:butt;stroke-linejoin:miter;stroke-miterlimit:4;stroke-opacity:1;stroke-dasharray:none"
       d="m 207.5,500.21933 c 25.30582,18.28039 41.83317,30.07668 51.23004,37.87442 17.34753,14.39537 15.51806,11.32201 36.3242,-2.42976 10.14597,-6.70594 24.11998,-16.91528 45.66004,-31.15895 21.54006,-14.24367 73.21429,-63.92857 73.21429,-63.92857 l -37.14286,-33.57143 -124.93872,62.37746 -1.32397,7.90046 c 0,0 -21.11543,9.54988 -43.02302,22.93637 z"
       id="path6060"
       inkscape:connector-curvature="0"
       sodipodi:nodetypes="csszccccc" />
    <path
       style="fill:none;stroke:#000000;stroke-width:5;stroke-linecap:butt;stroke-linejoin:miter;stroke-miterlimit:4;stroke-opacity:1;stroke-dasharray:none"
       d="M 301.42857,444.1479 C 312.17805,419.7825 335.2106,405.04046 286.78571,428.07647 238.36082,451.11248 242.22124,437.19979 205,456.6479 167.77876,476.09601 109.36219,444.72097 113.21429,443.79076"
       id="path6062"
       inkscape:connector-curvature="0"
       sodipodi:nodetypes="czzc" />
  </g>
  <g
     inkscape:groupmode="layer"
     id="layer4"
     inkscape:label="farbe"
     style="opacity:0.98999999;display:inline"
     transform="translate(-238.88199,-161.2456)">
    <path
       style="color:#000000;fill:#4f4f4f;fill-opacity:0.17982459;stroke:none;stroke-width:5;marker:none;visibility:visible;display:inline;overflow:visible;enable-background:accumulate"
       d="m 375.64978,274.91526 c -0.89767,-0.27873 -2.14286,-1.21944 -2.14286,-1.61887 0,-0.14307 -0.49394,-1.56356 -1.09763,-3.15664 -1.17916,-3.11167 -1.57547,-4.40592 -1.57882,-5.15613 l -0.002,-0.47389 1.83035,-0.10644 c 1.0067,-0.0586 4.27405,-0.1908 7.26079,-0.29389 4.41687,-0.15245 5.46037,-0.14412 5.59087,0.0446 0.0883,0.12763 0.11613,0.87492 0.062,1.66063 -0.31891,4.62587 -2.80653,8.16547 -6.41365,9.12591 -1.15363,0.30716 -2.46872,0.29768 -3.50889,-0.0253 z"
       id="path6037"
       inkscape:connector-curvature="0" />
    <path
       style="color:#000000;fill:#4f4f4f;fill-opacity:0.17982459;stroke:none;stroke-width:5;marker:none;visibility:visible;display:inline;overflow:visible;enable-background:accumulate"
       d="m 370.56049,262.15394 c -0.26853,-2.31368 0.32372,-4.60725 1.50793,-5.83966 1.06242,-1.10566 2.35024,-1.54186 4.5635,-1.54571 0.98214,-0.002 2.24314,0.0971 2.80222,0.21951 0.94527,0.20702 1.12313,0.33466 2.53794,1.82138 1.20113,1.26219 1.69118,1.94605 2.3278,3.24841 0.4435,0.9073 0.85576,1.86558 0.91611,2.12951 0.0997,0.43596 0.0551,0.48818 -0.48717,0.57057 -0.53211,0.0808 -11.75416,0.47413 -13.39187,0.46933 l -0.65211,-0.002 -0.12435,-1.07142 z"
       id="path6039"
       inkscape:connector-curvature="0" />
    <path
       style="color:#000000;fill:#b1b1b1;fill-opacity:1;stroke:none;stroke-width:0.1;marker:none;visibility:visible;display:inline;overflow:visible;enable-background:accumulate"
       d="m 385.11322,679.65357 c 0,-1.30219 0.83393,-2.1142 3.69658,-3.59939 5.14158,-2.66755 11.80314,-8.23225 15.44663,-12.90327 5.19351,-6.65816 6.36125,-10.14139 9.14286,-27.27225 1.39402,-8.58519 4.46716,-27.18087 6.82919,-41.32373 2.36203,-14.14286 4.46652,-26.89593 4.67665,-28.34016 0.3218,-2.2118 0.94595,-2.97641 3.9581,-4.84887 1.96683,-1.22265 3.40922,-2.38983 3.20532,-2.59373 -0.2039,-0.2039 -2.24624,0.82902 -4.53853,2.29537 -7.73379,4.94725 -16.85822,6.6819 -28.01308,5.3256 -8.46089,-1.02875 -14.51266,-2.98227 -31.18944,-10.06802 -10.6317,-4.51728 -15.17807,-6.06045 -20.98858,-7.12413 -4.07944,-0.74679 -9.16969,-2.21524 -11.31168,-3.26322 -3.28826,-1.60879 -3.82988,-2.14271 -3.47929,-3.42984 0.22837,-0.83844 1.88043,-8.11371 3.67124,-16.16729 4.19367,-18.85965 6.75802,-27.89628 15.10077,-53.21428 11.28505,-34.24714 20.08573,-55.74814 23.75103,-58.02634 0.78177,-0.48592 4.72716,-2.69974 8.76753,-4.91959 11.2225,-6.16586 16.72738,-10.02595 18.50268,-12.9743 0.87802,-1.45816 2.97281,-4.15022 4.65511,-5.98235 1.68229,-1.83213 3.2718,-4.18014 3.53224,-5.2178 0.26043,-1.03766 0.19317,-5.16364 -0.14948,-9.16885 -0.34264,-4.00521 -0.51412,-9.29062 -0.38104,-11.74537 l 0.24196,-4.46316 2.88611,5.53459 c 10.63328,20.39107 28.1632,46.69367 38.28742,57.44797 7.3873,7.84706 12.64527,10.07488 16.55684,7.0152 4.85379,-3.79669 9.0381,0.3072 18.21429,17.86424 6.33886,12.12832 10.48612,18.05559 13.24631,18.93164 1.07996,0.34276 2.95366,-0.94547 8.01027,-5.50734 7.88359,-7.11225 14.23947,-12.20363 23.38627,-18.73357 8.2882,-5.91698 11.15498,-8.5673 12.87475,-11.90261 1.49864,-2.90647 3.43896,-10.2482 5.74129,-21.72379 l 1.57638,-7.85714 3.57362,-1.78572 c 2.81952,-1.40889 4.04273,-2.61472 5.79665,-5.71428 l 2.22303,-3.92857 -0.0875,-17.02852 -0.0875,-17.02852 3.65892,3.5246 c 2.01241,1.93853 7.59228,6.65666 12.3997,10.48474 9.58702,7.63398 13.97446,12.11917 18.18065,18.58571 4.61365,7.09297 5.09868,9.88255 4.52494,26.02464 -0.42726,12.02085 -0.23826,16.89757 1.33188,34.36592 1.00638,11.19643 2.02077,22.125 2.25419,24.28571 0.23342,2.16072 0.69171,17.58929 1.01842,34.28572 0.64602,33.01496 1.16503,37.68785 5.31548,47.85714 1.04221,2.55357 2.37756,6.41071 2.96745,8.57143 1.51782,5.55958 2.13332,18.93358 1.11061,24.13193 -1.0107,5.13728 -7.53435,21.14583 -11.95465,29.33581 -1.7715,3.28226 -3.07938,6.10928 -2.90639,6.28226 0.70368,0.7037 6.96865,-11.39534 10.14212,-19.58666 l 2.01218,-5.1938 1.48832,2.47133 c 0.81858,1.35923 2.50702,4.17858 3.75209,6.26523 4.48386,7.51459 4.51149,13.28115 0.18478,38.56126 -1.85653,10.8473 -6.69122,33.36492 -7.2601,33.81403 -0.10364,0.0818 -50.89381,0.35288 -112.86702,0.60236 l -112.67857,0.45357 0,-1.68154 z"
       id="path3876"
       inkscape:connector-curvature="0" />
    <path
       style="color:#000000;fill:#e3cc88;fill-opacity:1;stroke:none;stroke-width:0.1;marker:none;visibility:visible;display:inline;overflow:visible;enable-background:accumulate"
       d="m 497.41938,464.6175 c -1.5152,-1.3689 -4.42181,-5.55905 -6.45911,-9.31145 -2.03731,-3.7524 -5.3917,-9.9463 -7.4542,-13.76421 -4.80485,-8.89432 -8.64812,-13.06437 -12.02041,-13.04245 -1.34413,0.009 -3.24744,0.64444 -4.22959,1.41268 -2.37303,1.85623 -3.78587,1.78173 -7.50107,-0.39553 -7.76579,-4.55106 -22.01751,-23.10226 -36.80565,-47.90924 -9.56327,-16.0423 -12.83613,-22.98054 -12.83613,-27.21169 0,-2.01998 -0.9909,-7.47121 -2.20199,-12.11383 -2.86992,-11.00157 -2.63957,-14.82822 1.54004,-25.58399 4.10434,-10.56209 4.27642,-15.38808 0.74684,-20.94553 -3.62421,-5.70646 -3.60044,-7.95831 0.21715,-20.566 5.38514,-17.78455 4.64769,-21.08625 -6.75861,-30.25988 -6.45156,-5.18872 -17.23884,-17.21094 -18.27888,-20.37145 -0.25856,-0.78571 -1.17605,-2.39285 -2.03888,-3.57142 -2.51135,-3.43035 -3.49303,-6.69131 -3.44822,-11.4543 0.14972,-15.91465 24.58454,-38.11436 47.14799,-42.83525 2.58006,-0.53982 13.56839,-1.37386 24.4185,-1.85343 29.69914,-1.31269 41.17825,-0.006 54.04479,6.1536 8.32472,3.98508 14.67989,9.82148 23.53202,21.61112 10.78498,14.36386 12.22087,17.784 16.85543,40.14789 3.26412,15.75089 5.22943,20.9999 14.18767,37.89279 3.0752,5.79899 6.28582,12.4 7.13473,14.66893 3.07336,8.21429 5.42588,22.97839 6.19562,38.88293 0.73957,15.2812 -0.57175,19.01346 -7.98485,22.72635 -4.83968,2.42399 -4.76498,2.11279 -3.83122,15.96114 1.75709,26.05857 -0.14506,33.92997 -8.9705,37.12129 -2.31698,0.83783 -2.37745,0.97345 -3.91066,8.7711 -2.22661,11.32407 -4.20017,18.8355 -5.72429,21.78676 -1.64876,3.1926 -5.33925,6.6915 -11.80125,11.18857 -8.10664,5.64161 -13.77073,10.1363 -22.64803,17.97214 l -8.36232,7.38126 -2.75492,-2.4889 0,0 z"
       id="path3880"
       inkscape:connector-curvature="0" />
  </g>
  <g
     inkscape:groupmode="layer"
     id="layer5"
     inkscape:label="haut"
     style="display:inline"
     transform="translate(-238.88199,-161.2456)">
    <path
       style="color:#000000;fill:#deaa87;fill-opacity:1;stroke:none;stroke-width:5;marker:none;visibility:visible;display:inline;overflow:visible;enable-background:accumulate"
       d="m 379.16442,675.04147 c -13.49042,-4.45323 -26.24367,-16.10712 -41.5469,-37.96545 -1.78777,-2.55358 -9.5675,-14.39959 -17.28828,-26.32447 -7.72078,-11.92489 -17.68425,-26.38918 -22.14105,-32.14286 -4.4568,-5.75369 -9.68183,-13.03267 -11.61118,-16.17553 -3.27578,-5.33615 -4.0507,-6.0818 -11.71025,-11.26796 -9.35109,-6.33148 -27.41842,-21.55688 -29.92971,-25.22187 -1.72498,-2.51744 -3.0538,-7.67572 -2.40973,-9.35416 0.77083,-2.00874 3.08992,-0.84791 5.89686,2.95171 1.58194,2.14139 3.98801,4.42099 5.34682,5.06579 1.35882,0.6448 2.84614,1.6249 3.30517,2.178 0.97457,1.17428 3.23141,1.33103 3.88717,0.26999 0.68984,-1.11618 -2.85329,-6.68012 -7.56421,-11.87843 -6.36931,-7.02829 -7.08161,-11.60524 -2.479,-15.92916 l 1.64084,-1.54149 0.45865,2.36379 c 0.52813,2.72192 9.88165,13.47261 10.64586,12.23608 0.25745,-0.41656 -1.61425,-3.12365 -4.15934,-6.01575 -3.63169,-4.12686 -4.62743,-5.74961 -4.62743,-7.54132 0,-2.90265 2.77462,-5.24379 6.21471,-5.24379 3.74143,0 5.24801,1.07924 4.77915,3.42355 -0.34058,1.7029 0.0373,2.27613 2.81601,4.27165 5.07425,3.64404 6.50717,2.69582 2.6187,-1.7329 -2.3118,-2.633 -2.50971,-3.47583 -1.46276,-6.22951 1.70977,-4.49705 6.78269,-3.51833 12.45797,2.40351 1.84166,1.92168 5.44546,4.99033 8.00845,6.81924 4.23605,3.02279 4.76961,3.22607 5.86518,2.23459 3.01121,-2.72511 4.76154,-2.70958 10.24512,0.0909 3.18333,1.62573 6.01612,3.69895 7.33979,5.37175 1.96692,2.4857 2.14966,3.1736 2.08725,7.85714 -0.0376,2.82312 -0.60758,9.23291 -1.26659,14.24397 -0.65901,5.01106 -0.94213,9.5471 -0.62916,10.08009 0.31297,0.53299 2.52364,2.58704 4.91259,4.56455 4.80493,3.97738 9.16278,9.25054 16.06895,19.44404 7.64603,11.2855 22.0732,25.28396 24.02358,23.30968 0.31016,-0.31396 0.52515,-8.41593 0.47777,-18.00439 -0.0474,-9.58846 0.0398,-17.43357 0.1937,-17.43357 0.15392,0 5.49626,2.20322 11.87187,4.89605 6.3756,2.69282 13.19915,5.40968 15.16343,6.03745 11.41548,3.64832 27.04363,3.67905 36.35692,0.0715 1.15781,-0.44848 1.2955,-0.27256 0.93836,1.19899 -0.71471,2.94496 -6.67482,37.77405 -10.50146,61.36744 -4.17772,25.75799 -5.30962,29.1258 -12.39256,36.8725 -4.57883,5.00792 -12.67798,10.80035 -15.82983,11.32131 -1.17857,0.19481 -3.91071,-0.22939 -6.07143,-0.94264 z"
       id="path6002"
       inkscape:connector-curvature="0" />
    <path
       style="color:#000000;fill:#deaa87;fill-opacity:1;stroke:none;stroke-width:5;marker:none;visibility:visible;display:inline;overflow:visible;enable-background:accumulate"
       d="m 401.30728,345.22495 c -6.10752,-1.62112 -11.38362,-4.47134 -12.92272,-6.98103 -1.15336,-1.88069 -1.30169,-3.04457 -0.92614,-7.26721 0.42549,-4.78413 0.32082,-5.27877 -2.15905,-10.20312 -2.29406,-4.55541 -2.55164,-5.58659 -2.15062,-8.60964 0.4217,-3.17896 0.30377,-3.55417 -1.5858,-5.04506 -1.99172,-1.57149 -2.04138,-1.77728 -2.04138,-8.45923 l 0,-6.84855 -3.21429,-2.30129 c -4.37713,-3.13384 -7.85714,-6.42405 -7.85714,-7.42861 0,-0.45733 1.20536,-2.01166 2.67857,-3.45406 2.35034,-2.3012 3.04564,-2.59589 5.67413,-2.40488 1.70614,0.12398 3.90374,-0.25196 5.10542,-0.87337 2.31149,-1.19532 5.11331,-6.18537 5.11331,-9.10681 0,-1.75566 0.18158,-1.82561 5.89285,-2.27021 9.83742,-0.76579 19.10715,-0.58037 19.10715,0.38221 0,0.46723 -1.3199,5.17922 -2.9331,10.47109 -3.67082,12.04158 -3.65445,16.20858 0.0869,22.11883 3.32103,5.24625 3.15806,8.14174 -1.09292,19.41772 -2.75029,7.29531 -3.36612,9.77787 -3.36654,13.57143 -4.6e-4,4.12028 1.3393,11.67943 2.6902,15.17857 0.59602,1.54384 -0.62373,1.56648 -6.09883,0.11322 z"
       id="path6004"
       inkscape:connector-curvature="0" />
    <path
       style="color:#000000;fill:#deaa87;fill-opacity:1;stroke:none;stroke-width:5;marker:none;visibility:visible;display:inline;overflow:visible;enable-background:accumulate"
       d="m 386.01725,260.3034 c -0.24469,-0.97493 -1.40454,-2.86558 -2.57743,-4.20143 -1.1729,-1.33586 -2.13254,-2.80414 -2.13254,-3.26286 0,-0.45872 -0.50893,-1.81819 -1.13095,-3.02105 -1.75665,-3.39699 -1.3446,-7.47541 1.44868,-14.33885 1.39668,-3.43181 2.53941,-6.72645 2.53941,-7.32143 0,-2.02987 1.07146,-1.07214 6.07143,5.42697 3.13238,4.07156 7.13443,8.18068 10.71429,11.00095 7.15554,5.63725 9.27616,7.86533 10.67639,11.21738 1.98086,4.74202 1.66778,5.29677 -3.28117,5.81404 -2.41477,0.2524 -8.32636,0.4589 -13.13685,0.4589 -8.71651,0 -8.74788,-0.006 -9.19126,-1.77262 z"
       id="path6006"
       inkscape:connector-curvature="0" />
  </g>
  <g
     inkscape:groupmode="layer"
     id="layer2"
     inkscape:label="aussen"
     style="display:inline"
     transform="translate(-238.88199,-161.2456)">
    <path
       style="fill:none;stroke:#000000;stroke-width:5;stroke-linecap:butt;stroke-linejoin:miter;stroke-miterlimit:4;stroke-opacity:1;stroke-dasharray:none"
       d="m 305.69741,589.83859 c 12.20808,17.22377 39.3758,66.71592 58.23116,77.88074 5.65424,5.42796 16.37424,9.39118 21.16071,9.55357 -0.0577,1.71074 -0.0639,2.40945 -0.26785,4.375 33.01036,0.53698 169.24896,-1.6509 226.0804,-0.42214 2.14281,-5.76677 10.16113,-43.81367 10.86221,-59.7258 0.70108,-15.91213 -12.14706,-20.11294 -8.25389,-25.90926 3.89317,-5.79632 3.96245,-27.62509 -1.38524,-38.79859 -5.3477,-11.1735 -7.13262,-30.16835 -5.73967,-47.8497 1.39295,-17.68135 -4.87242,-74.59364 -5.31382,-80.86594 -0.4414,-6.2723 -0.26868,3.38701 1.17078,-22.02338 1.43946,-25.41039 -33.75983,-40.59664 -39.65554,-50.62455 -5.89571,-10.02791 8.69938,-5.21371 10.75761,-16.14322 2.05823,-10.92951 -0.41048,-34.31276 -3.70142,-47.99456 -3.29094,-13.6818 -11.81975,-23.71202 -18.21428,-38.92857 -6.39453,-15.21655 -5.35185,-37.85771 -16.35986,-52.5 -11.00801,-14.64229 -17.81539,-25.96178 -35.3856,-32.14286 -17.57021,-6.18108 -47.37443,-3.51786 -68.96883,-2.14286 -21.5944,1.375 -67.23233,34.20138 -46.07143,58.21429 -2.31811,10.33598 -6.80136,15.60814 -6.78571,21.07143 0.0156,5.46329 3.37006,7.07074 2.85715,9.82143 -0.93806,-0.32185 -6.25603,-1.51344 -8.86721,0.9144 -2.61117,2.42784 -1.89958,6.18372 -1.62617,9.47653 0.27341,3.29281 3.2166,7.72411 2.92585,9.94724 -0.29076,2.22314 -5.83054,3.25573 -5.32497,7.60416 0.50557,4.34843 6.05008,5.49971 9.97526,8.83883 3.92518,3.33912 -0.64475,10.17361 0.25254,13.13199 0.89729,2.95838 5.94569,4.02034 4.47172,6.83647 -1.47396,2.81613 -0.43856,5.61984 1.968,10.08358 2.40656,4.46374 3.07048,3.24844 1.76777,12.62691 -1.30271,9.37847 17.23416,12.79132 21.60006,13.21846 4.3659,0.42714 -0.27725,20.05718 2.32143,31.42857 2.59868,11.3714 -5.54065,11.4319 -8.03572,17.85714 -2.49507,6.42524 -22.15915,13.97551 -28.21428,18.66072 -6.05513,4.68522 -24.61524,60.92813 -30.98178,82.22728 -6.36654,21.29915 -7.90391,34.68081 -11.2443,46.51034 9.54871,7.36559 21.43678,4.43835 26.64912,8.79551 0.72202,14.97541 1.26442,35.74481 -0.25254,36.36549 -5.2101,-2.16977 -18.18355,-16.05653 -22.98097,-23.99112 -4.79742,-7.93459 -11.34173,-16.35768 -16.92005,-20.20305 -5.57832,-3.84537 -3.40343,-2.99763 -3.4724,-7.00793 -0.069,-4.0103 4.14684,-20.85403 1.19429,-26.57635 -2.95255,-5.72232 -7.08871,-6.64195 -11.72351,-9.0666 -4.6348,-2.42465 -8.71099,1.11731 -9.10715,2.23214 -2.95391,-1.49852 -10.81426,-7.25859 -13.57142,-10.98215 -2.75716,-3.72356 -12.58077,-8.43129 -13.125,2.23215 -0.004,2.72435 2.16481,3.98415 4.46428,6.96428 -4.03982,-1.8413 -2.38222,-1.29159 -6.49619,-4.74204 1.82084,-3.45044 -0.44341,-5.69977 -4.99349,-5.68551 -4.55008,0.0143 -5.82017,2.61152 -7.52817,4.44541 -1.88198,-0.77574 -6.36333,3.42794 -6.96429,7.67857 -0.52486,7.7139 8.31188,12.57881 10.17857,16.16072 1.84321,3.6921 4.26962,5.58215 2.85714,6.25 -1.47629,0.71571 -4.75294,-3.87163 -7.23214,-3.75 -1.79751,-1.41217 -2.23467,-2.81474 -3.66071,-4.19643 -2.66774,-7.42131 -10.02763,-4.5878 -6.90333,1.20477 -0.34416,1.88809 0.27081,4.18269 1.99261,6.4738 1.9089,3.10546 7.21615,6.77136 10.80357,10 3.58742,3.22864 6.05827,5.70629 10.71429,9.375 4.65602,3.66871 14.12983,8.58822 17.41071,12.32143 5.82808,11.58966 16.3909,22.70038 22.6617,31.49426 z"
       id="path5434"
       inkscape:connector-curvature="0"
       sodipodi:nodetypes="ccccczzzzzzzzzzzzzczczzzzzzzzzzzzzzccczzzzzczccczcccccccczzcc" />
  </g>
  <g
     inkscape:groupmode="layer"
     id="layer3"
     inkscape:label="innen"
     style="display:inline"
     transform="translate(-238.88199,-161.2456)">
    <path
       style="fill:none;stroke:#000000;stroke-width:3;stroke-linecap:butt;stroke-linejoin:miter;stroke-miterlimit:4;stroke-opacity:1;stroke-dasharray:none"
       d="m 358.60415,552.84175 c 1.06947,-0.17824 23.42253,10.48727 31.31473,12.50064 11.51348,2.70381 23.71461,3.18767 34.34519,-1.6415 3.58241,-1.66034 7.3236,-4.92449 7.3236,-4.92449"
       id="path5437"
       inkscape:connector-curvature="0"
       sodipodi:nodetypes="cccc" />
    <path
       style="fill:none;stroke:#000000;stroke-width:3;stroke-linecap:butt;stroke-linejoin:miter;stroke-miterlimit:4;stroke-opacity:1;stroke-dasharray:none"
       d="m 425.02168,563.44835 c -0.41898,0.0739 -10.61689,62.9604 -13.78499,83.49295 -3.16809,20.53256 -26.01942,30.97471 -26.11603,30.40175"
       id="path5439"
       inkscape:connector-curvature="0"
       sodipodi:nodetypes="czc" />
    <path
       style="fill:none;stroke:#000000;stroke-width:3;stroke-linecap:butt;stroke-linejoin:miter;stroke-miterlimit:4;stroke-opacity:1;stroke-dasharray:none"
       d="m 612.67857,597.71933 c -3.86537,9.89565 -7.70739,19.88472 -12.5,26.07142"
       id="path5441"
       inkscape:connector-curvature="0"
       sodipodi:nodetypes="cc" />
    <path
       style="fill:none;stroke:#000000;stroke-width:3;stroke-linecap:butt;stroke-linejoin:miter;stroke-miterlimit:4;stroke-opacity:1;stroke-dasharray:none"
       d="m 384.1105,224.0371 c 0,0 6.34683,8.72177 11.41498,14.62927 5.06815,5.9075 16.1448,10.18191 17.81817,18.94036 1.67337,8.75845 -6.95121,23.173 -6.50472,30.8276 0.44649,7.6546 5.48208,7.81913 5.80838,14.89975 0.3263,7.08062 -6.92289,17.93178 -7.32361,25.50634 -0.40071,7.57457 3.99729,20.1164 3.99729,20.1164"
       id="path5443"
       inkscape:connector-curvature="0"
       sodipodi:nodetypes="czzzzzc" />
    <path
       style="fill:none;stroke:#000000;stroke-width:3;stroke-linecap:butt;stroke-linejoin:miter;stroke-miterlimit:4;stroke-opacity:1;stroke-dasharray:none;display:inline"
       d="m 409.50453,357.17318 c -0.88353,2.57377 45.46586,85.47958 57.65928,73.39097 12.19341,-12.0886 22.23034,34.77383 33.42611,36.76289 46.36161,-43.63139 40.53122,-17.09005 49.95105,-65.94527 18.6578,-4.64422 10.60581,-31.05475 10.96336,-48.2549"
       id="path5445"
       inkscape:connector-curvature="0"
       sodipodi:nodetypes="czccc" />
    <path
       style="fill:none;stroke:#000000;stroke-width:3;stroke-linecap:butt;stroke-linejoin:miter;stroke-miterlimit:4;stroke-opacity:1;stroke-dasharray:none"
       d="m 254.01786,496.6479 c -1.06464,6.41938 1.5877,5.73604 9.33035,15.35714"
       id="path5465"
       inkscape:connector-curvature="0"
       sodipodi:nodetypes="cc" />
    <path
       style="fill:none;stroke:#000000;stroke-width:3;stroke-linecap:butt;stroke-linejoin:miter;stroke-miterlimit:4;stroke-opacity:1;stroke-dasharray:none;display:inline"
       d="m 370.17857,263.88004 43.21429,-1.51785"
       id="path5977"
       inkscape:connector-curvature="0" />
    <path
       style="fill:none;stroke:#000000;stroke-width:3;stroke-linecap:butt;stroke-linejoin:miter;stroke-miterlimit:4;stroke-opacity:1;stroke-dasharray:none;display:inline"
       d="m 373.30357,274.14789 c 2.38614,2.87907 10.61363,2.59994 12.58929,-6.16071 1.97565,-8.76066 -5.93248,-13.6706 -4.82143,-13.03572"
       id="path5467"
       inkscape:connector-curvature="0"
       sodipodi:nodetypes="czc" />
  </g>
</svg>
